<svg width="1131" height="393" viewBox="0 0 1131 393" fill="none" xmlns="http://www.w3.org/2000/svg">
<g clip-path="url(#clip0_113_4042)">
<path d="M676.662 325.18C679.752 324.454 682.442 326.18 683.137 329.165C683.832 332.15 682.184 334.891 679.094 335.617C676.004 336.342 673.313 334.617 672.611 331.632C671.909 328.646 673.565 325.906 676.655 325.18H676.662Z" fill="black"/>
<path d="M706.924 318.092C710.014 317.366 712.705 319.092 713.399 322.077C714.094 325.062 712.446 327.803 709.356 328.529C706.266 329.255 703.576 327.529 702.873 324.544C702.171 321.559 703.827 318.818 706.917 318.092H706.924Z" fill="black"/>
<path d="M741.03 343.194L658.788 362.446L652.395 335.002L664.783 332.099L667.74 344.787L725.197 331.336L722.24 318.647L734.629 315.751L741.022 343.194H741.03Z" fill="#74FA91"/>
<path d="M734.939 317.04L722.55 319.936L719.594 307.248L662.137 320.699L665.094 333.388L652.705 336.291L646.311 308.848L728.552 289.597L734.946 317.04H734.939Z" fill="#74FA91"/>
<path d="M54.9877 304.989C57.9223 303.774 60.8494 305.04 62.0173 307.885C63.1852 310.729 61.9952 313.692 59.0606 314.899C56.1261 316.107 53.1915 314.847 52.0236 312.003C50.8557 309.159 52.0458 306.196 54.9877 304.989Z" fill="black"/>
<path d="M83.727 293.122C86.6615 291.908 89.5887 293.174 90.7566 296.019C91.9245 298.863 90.7344 301.826 87.7999 303.033C84.8653 304.24 81.9308 302.981 80.7629 300.137C79.595 297.293 80.785 294.33 83.727 293.122Z" fill="black"/>
<path d="M121.411 312.418L43.3235 344.639L32.6128 318.58L44.3806 313.729L49.3331 325.78L103.892 303.262L98.9396 291.211L110.7 286.359L121.411 312.418Z" fill="#74FA91"/>
<path d="M111.203 287.582L99.4423 292.433L94.4898 280.382L39.9308 302.9L44.8833 314.951L33.1155 319.803L22.4048 293.744L100.492 261.523L111.203 287.582Z" fill="#74FA91"/>
<path d="M881.977 239.058C885.03 239.925 886.56 242.732 885.725 245.687C884.897 248.643 882.133 250.243 879.072 249.376C876.02 248.51 874.489 245.702 875.325 242.747C876.16 239.791 878.925 238.191 881.977 239.058Z" fill="black"/>
<path d="M911.522 247.398C914.575 248.265 916.105 251.072 915.27 254.027C914.434 256.983 911.677 258.583 908.617 257.716C905.557 256.849 904.034 254.042 904.869 251.087C905.705 248.131 908.469 246.531 911.522 247.398Z" fill="black"/>
<path d="M1062.12 172.993C1065.04 171.756 1067.98 173 1069.17 175.83C1070.35 178.659 1069.19 181.637 1066.26 182.867C1063.33 184.096 1060.39 182.859 1059.2 180.03C1058.01 177.2 1059.18 174.223 1062.11 172.986L1062.12 172.993Z" fill="black"/>
<path d="M1092.22 160.29C1095.15 159.053 1098.09 160.297 1099.27 163.127C1100.46 165.956 1099.3 168.934 1096.37 170.164C1093.44 171.393 1090.5 170.156 1089.31 167.327C1088.12 164.497 1089.29 161.519 1092.22 160.282L1092.22 160.29Z" fill="black"/>
<path d="M1071.81 133.721C1073.98 138.899 1077.98 139.676 1083.27 137.44L1094.38 132.751C1108.09 126.966 1117.5 129.306 1123.04 142.484L1125.9 149.298L1111.57 155.343L1109.73 150.98C1107.78 146.343 1104.69 145.943 1099.6 148.091L1088.39 152.824C1079.98 156.372 1073.86 154.891 1069.68 148.735C1071.16 156.031 1067.93 161.453 1059.52 165.001L1048.31 169.735C1043.22 171.883 1041.34 174.386 1043.29 179.023L1045.12 183.386L1030.8 189.43L1027.94 182.616C1022.4 169.438 1027.31 161.053 1041.01 155.276L1052.12 150.587C1057.42 148.35 1059.65 144.95 1057.47 139.773L1055.87 135.958L1070.2 129.914L1071.81 133.729V133.721Z" fill="#724CF9"/>
<path d="M1084.9 205.007C1082.72 199.829 1078.72 199.052 1073.43 201.288L1062.32 205.977C1048.62 211.762 1039.2 209.422 1033.66 196.244L1030.8 189.43L1045.14 183.385L1046.97 187.748C1048.92 192.385 1052.02 192.785 1057.1 190.637L1068.32 185.904C1076.72 182.356 1082.84 183.837 1087.03 189.993C1085.55 182.697 1088.77 177.275 1097.18 173.727L1108.4 168.993C1113.48 166.845 1115.37 164.342 1113.41 159.705L1111.58 155.342L1125.91 149.298L1128.77 156.112C1134.3 169.29 1129.4 177.675 1115.69 183.452L1104.58 188.141C1099.28 190.378 1097.05 193.778 1099.23 198.955L1100.83 202.77L1086.5 208.814L1084.9 204.999V205.007Z" fill="#724CF9"/>
<path d="M415.25 173.564C418.163 172.29 421.112 173.497 422.339 176.312C423.566 179.127 422.435 182.119 419.53 183.393C416.625 184.667 413.661 183.46 412.434 180.653C411.207 177.845 412.338 174.846 415.25 173.572V173.564Z" fill="black"/>
<path d="M445.195 160.468C448.107 159.194 451.056 160.402 452.283 163.216C453.51 166.031 452.379 169.024 449.474 170.298C446.569 171.572 443.605 170.364 442.378 167.557C441.151 164.75 442.282 161.75 445.195 160.476V160.468Z" fill="black"/>
<path d="M424.431 134.172C426.678 139.32 430.677 140.046 435.947 137.743L446.991 132.906C460.614 126.943 470.061 129.158 475.775 142.261L478.724 149.039L464.472 155.275L462.58 150.935C460.57 146.327 457.465 145.965 452.409 148.179L441.255 153.061C432.895 156.72 426.752 155.32 422.494 149.216C424.069 156.49 420.92 161.957 412.552 165.616L401.398 170.497C396.342 172.712 394.494 175.238 396.497 179.852L398.39 184.193L384.146 190.422L381.196 183.645C375.49 170.541 380.287 162.097 393.918 156.135L404.961 151.298C410.224 148.994 412.412 145.565 410.172 140.409L408.516 136.609L422.768 130.373L424.424 134.172H424.431Z" fill="#74FA91"/>
<path d="M438.453 205.274C436.206 200.126 432.207 199.4 426.937 201.704L415.893 206.541C402.27 212.503 392.823 210.289 387.109 197.186L384.16 190.408L398.412 184.171L400.304 188.512C402.314 193.119 405.419 193.482 410.475 191.267L421.629 186.386C429.989 182.727 436.132 184.127 440.39 190.23C438.815 182.956 441.964 177.49 450.332 173.831L461.486 168.95C466.542 166.735 468.39 164.209 466.387 159.594L464.494 155.254L478.738 149.024L481.688 155.802C487.394 168.905 482.597 177.349 468.966 183.312L457.923 188.149C452.66 190.452 450.472 193.882 452.712 199.037L454.368 202.837L440.116 209.074L438.46 205.274H438.453Z" fill="#74FA91"/>
<path d="M942.59 260.916C928.05 248.235 915.314 239.354 899.355 234.843C883.396 230.332 867.903 231.243 848.898 234.443L852.72 220.843C869.78 216.725 887.262 216.199 903.317 220.732C919.379 225.265 934.008 234.872 946.411 247.309L942.59 260.908V260.916Z" fill="#67AACE"/>
<path d="M848.899 234.45C863.438 247.131 876.175 256.012 892.133 260.523C908.092 265.034 923.586 264.123 942.59 260.923L938.768 274.523C921.708 278.641 904.227 279.167 888.171 274.634C872.109 270.101 857.481 260.494 845.077 248.057L848.899 234.458V234.45Z" fill="#67AACE"/>
<path d="M273.845 223.999C276.905 224.851 278.443 227.651 277.622 230.613C276.802 233.576 274.044 235.184 270.984 234.332C267.924 233.48 266.387 230.68 267.207 227.717C268.028 224.754 270.785 223.147 273.845 223.999Z" fill="black"/>
<path d="M303.427 232.221C306.487 233.072 308.025 235.872 307.204 238.835C306.384 241.798 303.626 243.405 300.566 242.553C297.506 241.702 295.969 238.902 296.789 235.939C297.61 232.976 300.367 231.369 303.427 232.221Z" fill="black"/>
<path d="M334.554 245.613C319.962 232.999 307.182 224.169 291.208 219.725C275.234 215.288 259.741 216.258 240.751 219.54L244.521 205.925C261.559 201.74 279.041 201.133 295.118 205.6C311.195 210.066 325.868 219.606 338.323 231.991L334.554 245.605V245.613Z" fill="#67AACE"/>
<path d="M240.752 219.54C255.343 232.154 268.124 240.984 284.097 245.428C300.071 249.865 315.564 248.894 334.554 245.613L330.784 259.227C313.746 263.412 296.264 264.02 280.187 259.553C264.11 255.087 249.437 245.546 236.982 233.162L240.752 219.547V219.54Z" fill="#67AACE"/>
<path d="M1037.4 319.914C1039.35 317.403 1042.52 317.055 1044.94 318.944C1047.35 320.833 1047.78 324.003 1045.83 326.507C1043.88 329.01 1040.7 329.366 1038.29 327.477C1035.88 325.588 1035.45 322.418 1037.4 319.907L1037.4 319.914Z" fill="black"/>
<path d="M1052.79 301.092C1054.74 298.581 1057.91 298.233 1060.33 300.122C1062.74 302.011 1063.17 305.181 1061.22 307.684C1059.27 310.188 1056.09 310.544 1053.68 308.655C1051.27 306.766 1050.84 303.596 1052.79 301.085L1052.79 301.092Z" fill="black"/>
<path d="M1017 356.401L1013.16 353.394L1025.22 300.137L1029.07 303.144L1017 356.401Z" fill="#FFB600" stroke="#FFBE0B" stroke-width="10.04" stroke-miterlimit="10"/>
<path d="M1078.44 269.612L1082.29 272.62L1033.66 297.263L1029.81 294.256L1078.44 269.612Z" fill="#FFB600" stroke="#FFBE0B" stroke-width="10.04" stroke-miterlimit="10"/>
<path d="M1064.87 331.15L1068.71 334.158L1020.08 358.801L1016.23 355.794L1064.87 331.15Z" fill="#FFB600" stroke="#FFBE0B" stroke-width="10.04" stroke-miterlimit="10"/>
<path d="M1073.29 328.269L1069.44 325.262L1081.5 272.005L1085.35 275.012L1073.29 328.269Z" fill="#FFB600" stroke="#FFBE0B" stroke-width="10.04" stroke-miterlimit="10"/>
<path d="M375.431 317.751C377.382 315.24 380.546 314.877 382.97 316.765C385.395 318.654 385.831 321.817 383.879 324.328C381.928 326.839 378.757 327.202 376.34 325.321C373.923 323.439 373.486 320.269 375.431 317.758V317.751Z" fill="black"/>
<path d="M390.768 298.885C392.72 296.374 395.884 296.011 398.308 297.9C400.733 299.789 401.169 302.952 399.217 305.463C397.266 307.974 394.095 308.337 391.678 306.455C389.26 304.574 388.824 301.404 390.768 298.893V298.885Z" fill="black"/>
<path d="M355.125 354.283L351.281 351.291L363.212 298.004L367.055 300.996L355.125 354.283Z" fill="#FFB600" stroke="#FFBE0B" stroke-width="10.04" stroke-miterlimit="10"/>
<path d="M416.351 267.346L420.195 270.338L371.624 295.1L367.78 292.108L416.351 267.346Z" fill="#FFB600" stroke="#FFBE0B" stroke-width="10.04" stroke-miterlimit="10"/>
<path d="M402.921 328.921L406.764 331.913L358.193 356.675L354.349 353.683L402.921 328.921Z" fill="#FFB600" stroke="#FFBE0B" stroke-width="10.04" stroke-miterlimit="10"/>
<path d="M411.34 326.018L407.496 323.025L419.426 269.738L423.27 272.731L411.34 326.018Z" fill="#FFB600" stroke="#FFBE0B" stroke-width="10.04" stroke-miterlimit="10"/>
<path d="M255.313 370.008L167.646 341.735L177.101 312.299L190.31 316.558L185.941 330.165L247.19 349.92L251.558 336.313L264.76 340.572L255.306 370.008H255.313Z" fill="#F95608"/>
<path d="M207.836 319.425C210.534 320.291 211.798 322.847 210.963 325.461C210.127 328.076 207.607 329.402 204.909 328.535C202.211 327.669 200.939 325.113 201.782 322.498C202.625 319.884 205.138 318.558 207.836 319.425Z" fill="black"/>
<path d="M235.6 328.373C238.298 329.239 239.562 331.795 238.726 334.41C237.891 337.024 235.37 338.35 232.672 337.484C229.974 336.617 228.703 334.061 229.546 331.447C230.388 328.832 232.902 327.506 235.6 328.373Z" fill="black"/>
<path d="M237.196 298.493C235.666 303.27 237.913 306.122 242.799 307.692L253.037 310.996C265.669 315.07 270.688 322.144 266.785 334.291L264.767 340.573L251.558 336.314L252.852 332.291C254.227 328.018 252.357 325.936 247.67 324.425L237.336 321.092C229.59 318.596 226.3 314.025 227.047 307.418C223.809 313.218 218.487 315.011 210.733 312.507L200.399 309.174C195.713 307.663 192.985 308.263 191.611 312.537L190.317 316.559L177.115 312.3L179.133 306.018C183.036 293.871 191.219 291.063 203.859 295.137L214.097 298.441C218.975 300.019 222.464 299.011 224.002 294.241L225.132 290.723L238.342 294.982L237.211 298.5L237.196 298.493Z" fill="#F95608"/>
<path d="M83.9119 94.1966L0 56.1684L12.7139 27.9917L25.3539 33.7174L19.4774 46.7465L78.1093 73.3159L83.9858 60.2868L96.6259 66.0125L83.9119 94.1892V94.1966Z" fill="#F95608"/>
<path d="M42.4513 38.554C45.0311 39.7243 46.0068 42.4057 44.8758 44.9019C43.7449 47.3981 41.0986 48.4425 38.5189 47.2722C35.9391 46.1019 34.9634 43.4205 36.087 40.9243C37.2105 38.4281 39.8642 37.3911 42.4513 38.5614V38.554Z" fill="black"/>
<path d="M69.0172 50.5979C71.597 51.7683 72.5727 54.4497 71.4417 56.9459C70.3108 59.4421 67.6645 60.4865 65.0848 59.3161C62.505 58.1458 61.5293 55.4644 62.6529 52.9682C63.7764 50.472 66.4301 49.435 69.0172 50.6054V50.5979Z" fill="black"/>
<path d="M73.9773 21.0883C71.915 25.6585 73.8295 28.7472 78.5085 30.8657L88.3101 35.31C100.403 40.7912 104.587 48.3835 99.3387 60.0127L96.6259 66.0273L83.9859 60.3016L85.7229 56.4499C87.5709 52.3612 85.9521 50.0798 81.4578 48.0502L71.5602 43.5689C64.1388 40.2061 61.3965 35.2951 62.8822 28.8213C59.0163 34.2137 53.5168 35.3914 46.0954 32.0286L36.1977 27.5473C31.7109 25.5177 28.9316 25.7992 27.0836 29.8879L25.3466 33.7396L12.7065 28.0139L15.4193 21.9993C20.6675 10.3702 29.1164 8.50355 41.2168 13.9848L51.0183 18.4291C55.69 20.5475 59.2676 19.9476 61.3299 15.3774L62.8526 12.0071L75.4927 17.7328L73.9699 21.1031L73.9773 21.0883Z" fill="#F95608"/>
<path d="M887.78 372.941L796.69 359.356L801.236 328.772L814.963 330.817L812.864 344.957L876.507 354.453L878.607 340.313L892.326 342.357L887.78 372.941Z" fill="#F95608"/>
<path d="M832.718 330.788C835.52 331.203 837.19 333.521 836.784 336.232C836.377 338.943 834.115 340.669 831.314 340.254C828.512 339.839 826.842 337.521 827.248 334.81C827.655 332.099 829.917 330.373 832.725 330.788H832.718Z" fill="black"/>
<path d="M861.561 335.091C864.362 335.505 866.033 337.824 865.626 340.535C865.22 343.246 862.958 344.972 860.156 344.557C857.355 344.142 855.684 341.824 856.091 339.113C856.497 336.402 858.759 334.676 861.568 335.091H861.561Z" fill="black"/>
<path d="M858.279 305.344C857.539 310.307 860.23 312.751 865.301 313.507L875.938 315.092C889.066 317.047 895.164 323.21 893.286 335.832L892.318 342.358L878.591 340.313L879.212 336.136C879.87 331.699 877.697 329.951 872.818 329.217L862.078 327.617C854.028 326.417 850.044 322.44 849.704 315.81C847.457 322.062 842.49 324.699 834.433 323.499L823.692 321.899C818.821 321.173 816.227 322.21 815.569 326.647L814.948 330.825L801.229 328.78L802.197 322.255C804.074 309.633 811.695 305.522 824.823 307.477L835.46 309.062C840.531 309.818 843.813 308.263 844.545 303.3L845.084 299.641L858.811 301.685L858.271 305.344H858.279Z" fill="#F95608"/>
<path d="M593.46 257.538L536.787 184.793L561.113 165.764L569.651 176.726L558.4 185.526L597.998 236.354L609.249 227.554L617.786 238.509L593.46 257.538Z" fill="#67AACE"/>
<path d="M582.542 188.97C584.286 191.207 583.902 194.037 581.743 195.726C579.585 197.414 576.761 197.096 575.017 194.859C573.272 192.622 573.657 189.792 575.808 188.104C577.959 186.415 580.797 186.733 582.542 188.97Z" fill="black"/>
<path d="M600.489 212C602.233 214.236 601.849 217.066 599.691 218.755C597.532 220.444 594.709 220.125 592.964 217.888C591.22 215.651 591.604 212.822 593.755 211.133C595.906 209.444 598.745 209.763 600.489 212Z" fill="black"/>
<path d="M618.569 188.178C614.622 191.267 614.888 194.889 618.045 198.941L624.668 207.437C632.836 217.918 633.02 226.591 622.982 234.443L617.793 238.502L609.256 227.54L612.575 224.94C616.108 222.177 615.731 219.406 612.693 215.518L606.011 206.94C600.999 200.511 600.844 194.882 605.161 189.837C599.232 192.815 593.822 191.296 588.81 184.867L582.128 176.29C579.097 172.401 576.503 171.356 572.977 174.119L569.658 176.719L561.12 165.764L566.309 161.705C576.347 153.853 584.7 156.135 592.868 166.623L599.491 175.119C602.647 179.171 606.092 180.304 610.039 177.215L612.944 174.942L621.482 185.904L618.577 188.178H618.569Z" fill="#67AACE"/>
<path d="M493.226 352.542C495.237 350.083 498.415 349.809 500.788 351.757C503.161 353.705 503.508 356.882 501.498 359.342C499.487 361.801 496.301 362.082 493.936 360.134C491.571 358.186 491.216 355.008 493.226 352.549V352.542Z" fill="black"/>
<path d="M512.933 328.454C514.943 325.995 518.122 325.721 520.495 327.669C522.868 329.617 523.215 332.794 521.204 335.254C519.194 337.713 516.008 337.994 513.643 336.046C511.277 334.098 510.922 330.92 512.933 328.461V328.454Z" fill="black"/>
<path d="M555.236 327.558L501.69 393L479.943 375.134L488.015 365.275L498.068 373.534L535.478 327.81L525.425 319.551L533.49 309.692L555.236 327.558Z" fill="#74FA91"/>
<path d="M534.517 310.537L526.453 320.396L516.4 312.137L478.99 357.861L489.043 366.12L480.971 375.979L459.224 358.113L512.77 292.671L534.517 310.537Z" fill="#67AACE"/>
<path d="M210.844 36.9764C208.043 38.4653 205.005 37.4949 203.564 34.7765C202.122 32.0581 203.024 28.9989 205.833 27.5027C208.642 26.0065 211.68 26.9842 213.114 29.7026C214.548 32.421 213.653 35.4876 210.844 36.9764Z" fill="black"/>
<path d="M181.979 52.3168C179.178 53.8056 176.14 52.8353 174.698 50.1168C173.257 47.3984 174.159 44.3393 176.968 42.843C179.776 41.3468 182.815 42.3245 184.249 45.043C185.683 47.7614 184.788 50.8279 181.979 52.3168Z" fill="black"/>
<path d="M204.672 76.9599C202.048 71.9971 197.997 71.5823 192.919 74.2785L182.267 79.9375C169.132 86.9225 159.545 85.4336 152.855 72.7971L149.396 66.264L163.13 58.9606L165.34 63.1382C167.691 67.5825 170.817 67.7084 175.696 65.1159L186.444 59.405C194.501 55.1237 200.732 56.0496 205.441 61.8049C203.319 54.6718 206.047 48.9832 214.111 44.6944L224.859 38.9835C229.73 36.391 231.386 33.7319 229.035 29.2876L226.825 25.11L240.559 17.814L244.019 24.3471C250.701 36.9762 246.561 45.7611 233.419 52.746L222.767 58.405C217.689 61.1012 215.767 64.6937 218.399 69.6565L220.335 73.3156L206.601 80.619L204.665 76.9599H204.672Z" fill="#724CF9"/>
<path d="M185.306 7.12589C187.93 12.0887 191.98 12.5035 197.059 9.80727L207.71 4.14822C220.845 -2.8367 230.433 -1.34787 237.122 11.2887L240.582 17.8218L226.848 25.1252L224.637 20.9476C222.287 16.5033 219.16 16.3774 214.282 18.9699L203.534 24.6808C195.477 28.9621 189.245 28.0362 184.537 22.2809C186.658 29.4139 183.931 35.1026 175.866 39.3913L165.119 45.1022C160.247 47.6947 158.592 50.3539 160.942 54.7982L163.152 58.9758L149.418 66.2718L145.959 59.7387C139.277 47.1096 143.416 38.3247 156.559 31.3398L167.21 25.6807C172.289 22.9845 174.21 19.3921 171.579 14.4293L169.642 10.7702L183.376 3.46676L185.313 7.12589H185.306Z" fill="#F95608"/>
<path d="M842.992 46.8647C840.487 48.8202 837.33 48.3906 835.445 45.9684C833.56 43.5463 833.908 40.3686 836.414 38.4132C838.92 36.4577 842.083 36.8873 843.968 39.302C845.853 41.7167 845.498 44.9018 843 46.8573L842.992 46.8647Z" fill="black"/>
<path d="M817.232 67.0122C814.726 68.9676 811.57 68.538 809.685 66.1159C807.8 63.6938 808.148 60.5161 810.653 58.5606C813.159 56.6051 816.323 57.0348 818.208 59.4495C820.093 61.8642 819.738 65.0493 817.24 67.0047L817.232 67.0122Z" fill="black"/>
<path d="M843.865 87.3154C840.413 82.8859 836.355 83.1822 831.824 86.7228L822.325 94.1522C810.602 103.322 800.904 103.53 792.122 92.256L787.583 86.4265L799.839 76.8417L802.744 80.5749C805.834 84.5377 808.931 84.1155 813.285 80.7156L822.879 73.2122C830.072 67.5902 836.362 67.4124 842.002 72.2641C838.676 65.6125 840.368 59.5313 847.568 53.9018L857.163 46.3984C861.509 42.9986 862.677 40.0876 859.587 36.1173L856.682 32.3841L868.938 22.7993L873.476 28.6287C882.258 39.9024 879.7 49.2724 867.977 58.4424L858.478 65.8718C853.947 69.4124 852.683 73.2863 856.128 77.7158L858.671 80.9823L846.415 90.5671L843.872 87.3006L843.865 87.3154Z" fill="#724CF9"/>
<path d="M812.657 21.9251C816.109 26.3545 820.167 26.0583 824.698 22.5176L834.196 15.0883C845.92 5.91828 855.618 5.71088 864.399 16.9845L868.938 22.8139L856.682 32.3988L853.777 28.6656C850.687 24.7028 847.59 25.125 843.237 28.5248L833.642 36.0282C826.45 41.6503 820.159 41.828 814.519 36.9764C817.846 43.628 816.153 49.7092 808.953 55.3386L799.359 62.842C795.012 66.2419 793.844 69.1529 796.934 73.1231L799.839 76.8563L787.583 86.4412L783.045 80.6118C774.263 69.3381 776.821 59.9681 788.544 50.7981L798.043 43.3687C802.574 39.8281 803.838 35.9542 800.394 31.5247L797.851 28.2582L810.106 18.6733L812.649 21.9399L812.657 21.9251Z" fill="#F95608"/>
<path d="M763.279 175.572C760.522 177.149 757.454 176.268 755.931 173.601C754.409 170.935 755.215 167.839 757.972 166.261C760.729 164.683 763.796 165.565 765.319 168.224C766.842 170.883 766.036 173.986 763.279 175.564V175.572Z" fill="black"/>
<path d="M736.624 190.829C733.867 192.407 730.799 191.526 729.277 188.859C727.754 186.193 728.56 183.096 731.317 181.519C734.074 179.941 737.142 180.822 738.664 183.482C740.187 186.141 739.381 189.244 736.624 190.822V190.829Z" fill="black"/>
<path d="M705.224 203.555C724.442 202.051 739.692 199.177 754.084 190.94C768.475 182.696 778.691 170.993 789.742 155.164L796.734 167.43C787.702 182.504 775.823 195.37 761.335 203.666C746.847 211.962 729.757 215.688 712.209 215.828L705.216 203.562L705.224 203.555Z" fill="#F95608"/>
<path d="M789.742 155.157C770.523 156.661 755.274 159.535 740.882 167.772C726.49 176.016 716.275 187.719 705.224 203.548L698.231 191.282C707.264 176.208 719.143 163.342 733.631 155.046C748.119 146.75 765.209 143.025 782.757 142.884L789.75 155.15L789.742 155.157Z" fill="#67AACE"/>
<path d="M117.478 168.29C120.427 167.104 123.34 168.401 124.485 171.252C125.631 174.104 124.412 177.06 121.462 178.245C118.513 179.43 115.593 178.134 114.455 175.289C113.316 172.445 114.536 169.482 117.478 168.297V168.29Z" fill="black"/>
<path d="M145.966 156.846C148.916 155.661 151.828 156.957 152.974 159.809C154.119 162.661 152.9 165.616 149.95 166.801C147.001 167.987 144.081 166.69 142.943 163.846C141.805 161.002 143.024 158.039 145.966 156.854V156.846Z" fill="black"/>
<path d="M178.816 148.565C159.575 147.409 144.074 148.157 128.684 154.335C113.295 160.52 101.579 170.712 88.4655 184.867L83.2173 171.756C94.2237 158.068 107.758 146.957 123.244 140.735C138.73 134.513 156.175 133.18 173.567 135.454L178.816 148.565Z" fill="#F95608"/>
<path d="M88.4653 184.867C107.706 186.022 123.207 185.274 138.597 179.097C153.986 172.912 165.702 162.719 178.816 148.564L184.064 161.675C173.057 175.363 159.523 186.474 144.037 192.696C128.551 198.918 111.106 200.251 93.7135 197.977L88.4653 184.867Z" fill="#67AACE"/>
<path d="M946.914 90.041C948.836 87.5078 952 87.1078 954.439 88.967C956.879 90.8262 957.359 93.9816 955.437 96.5223C953.515 99.0629 950.352 99.4555 947.912 97.6037C945.473 95.7519 945 92.5891 946.914 90.0484V90.041Z" fill="black"/>
<path d="M962.031 70.9971C963.953 68.4638 967.116 68.0639 969.556 69.923C971.995 71.7822 972.475 74.9377 970.553 77.4783C968.632 80.019 965.468 80.4115 963.029 78.5598C960.589 76.708 960.116 73.5451 962.031 71.0045V70.9971Z" fill="black"/>
<path d="M927.038 126.818L923.157 123.87L934.459 70.4419L938.34 73.3899L927.038 126.818Z" stroke="#FFBE0B" stroke-width="10.04" stroke-miterlimit="10"/>
<path d="M987.237 39.1616L991.118 42.1097L942.842 67.4494L938.961 64.5014L987.237 39.1616Z" stroke="#FFBE0B" stroke-width="10.04" stroke-miterlimit="10"/>
<path d="M974.538 100.885L978.418 103.833L930.142 129.173L926.262 126.225L974.538 100.885Z" stroke="#724CF9" stroke-width="10.04" stroke-miterlimit="10"/>
<path d="M982.912 97.8854L979.031 94.9374L990.333 41.5098L994.214 44.4578L982.912 97.8854Z" stroke="#724CF9" stroke-width="10.04" stroke-miterlimit="10"/>
<path d="M319.615 71.1008C317.671 73.6192 314.5 73.9822 312.075 72.1008C309.651 70.2194 309.207 67.0565 311.151 64.5381C313.095 62.0197 316.266 61.6567 318.691 63.5381C321.115 65.4195 321.559 68.5824 319.615 71.1008Z" fill="black"/>
<path d="M304.306 89.989C302.362 92.5074 299.191 92.8704 296.767 90.989C294.342 89.1075 293.899 85.9447 295.843 83.4263C297.787 80.9078 300.958 80.5449 303.382 82.4263C305.807 84.3077 306.25 87.4706 304.306 89.989Z" fill="black"/>
<path d="M339.854 34.5244L343.705 37.5095L331.871 90.8186L328.02 87.8335L339.854 34.5244Z" stroke="#FFBE0B" stroke-width="10.04" stroke-miterlimit="10"/>
<path d="M278.782 121.573L274.931 118.588L323.458 93.7373L327.31 96.7224L278.782 121.573Z" stroke="#FFBE0B" stroke-width="10.04" stroke-miterlimit="10"/>
<path d="M292.103 59.983L288.251 56.9979L336.779 32.147L340.63 35.132L292.103 59.983Z" stroke="#724CF9" stroke-width="10.04" stroke-miterlimit="10"/>
<path d="M283.691 62.894L287.542 65.8791L275.708 119.188L271.856 116.203L283.691 62.894Z" stroke="#724CF9" stroke-width="10.04" stroke-miterlimit="10"/>
<path d="M507.426 108.47L437.721 48.1609L457.886 24.7544L468.39 33.8429L459.069 44.6648L507.773 86.8039L517.095 75.9821L527.591 85.0632L507.426 108.47Z" fill="#FFBE0B"/>
<path d="M483.403 43.3318C485.546 45.191 485.724 48.0353 483.935 50.1093C482.146 52.1833 479.308 52.4278 477.164 50.5686C475.02 48.7094 474.843 45.865 476.632 43.791C478.421 41.7171 481.259 41.4726 483.403 43.3318Z" fill="black"/>
<path d="M505.475 62.4275C507.619 64.2867 507.796 67.131 506.007 69.205C504.218 71.279 501.38 71.5235 499.236 69.6643C497.093 67.8051 496.915 64.9608 498.704 62.8868C500.493 60.8128 503.331 60.5683 505.475 62.4275Z" fill="black"/>
<path d="M518.588 35.5392C515.321 39.3317 516.282 42.8426 520.162 46.1981L528.308 53.2422C538.353 61.9308 540.216 70.4046 531.9 80.0634L527.598 85.0559L517.095 75.9673L519.852 72.7674C522.779 69.3676 521.87 66.7232 518.144 63.5011L509.925 56.3903C503.76 51.0571 502.518 45.5685 505.77 39.7761C500.537 43.85 494.934 43.4204 488.769 38.0873L480.549 30.9764C476.824 27.7543 474.074 27.2358 471.147 30.6357L468.39 33.8356L457.894 24.7544L462.196 19.762C470.519 10.1031 479.152 10.7179 489.198 19.4065L497.344 26.4507C501.224 29.8061 504.824 30.2505 508.099 26.4507L510.509 23.6508L521.012 32.7393L518.603 35.5392H518.588Z" fill="#F95608"/>
<path d="M695.614 97.9592L607.386 71.5157L616.226 41.8872L629.524 45.8722L625.437 59.568L687.084 78.0414L691.172 64.3456L704.463 68.3307L695.622 97.9592H695.614Z" fill="#F95608"/>
<path d="M647.095 48.3759C649.807 49.1906 651.131 51.7165 650.347 54.346C649.563 56.9755 647.072 58.3607 644.36 57.5459C641.647 56.7311 640.324 54.2053 641.107 51.5757C641.891 48.9462 644.382 47.5611 647.095 48.3759Z" fill="black"/>
<path d="M675.035 56.746C677.748 57.5608 679.071 60.0866 678.288 62.7161C677.504 65.3457 675.013 66.7308 672.301 65.916C669.588 65.1012 668.265 62.5754 669.048 59.9459C669.832 57.3163 672.323 55.9312 675.035 56.746Z" fill="black"/>
<path d="M676.019 26.8358C674.585 31.643 676.898 34.4429 681.806 35.9169L692.111 39.0057C704.824 42.813 709.984 49.7831 706.34 62.0048L704.455 68.3231L691.157 64.3381L692.362 60.2938C693.648 55.9902 691.741 53.9533 687.018 52.5385L676.61 49.4201C668.812 47.0795 665.433 42.5833 666.04 35.9688C662.928 41.8352 657.635 43.7388 649.837 41.3982L639.429 38.2798C634.713 36.865 631.993 37.5243 630.714 41.8204L629.509 45.8647L616.219 41.8797L618.104 35.5614C621.755 23.3396 629.879 20.3545 642.6 24.1618L652.904 27.2506C657.82 28.7246 661.287 27.6506 662.721 22.8433L663.778 19.3027L677.076 23.2878L676.019 26.8284V26.8358Z" fill="#67AACE"/>
</g>
<defs>
<clipPath id="clip0_113_4042">
<rect width="1131" height="393" fill="white"/>
</clipPath>
</defs>
</svg>
