<svg width="256" height="277" viewBox="0 0 256 277" fill="none" xmlns="http://www.w3.org/2000/svg">
<g clip-path="url(#clip0_109_4009)">
<path d="M28.39 66.39C31.16 66.39 33.43 65.97 35.21 65.13C36.99 64.29 38.38 63.16 39.36 61.75C40.34 60.33 41.02 58.69 41.38 56.84C41.74 54.98 41.93 53.07 41.93 51.11V49.14H56.34V51.11C56.34 60.21 53.95 67.22 49.19 72.13C44.42 77.04 37.49 79.5 28.39 79.5C19.29 79.5 12.74 76.84 7.64 71.53C2.54 66.22 0 58.46 0 48.27V31.24C0 26.36 0.66 21.98 1.97 18.08C3.28 14.19 5.17 10.91 7.65 8.25C10.12 5.59 13.11 3.55 16.6 2.14C20.09 0.73 24.02 0 28.39 0C32.76 0 36.91 0.65 40.4 1.97C43.89 3.28 46.82 5.17 49.19 7.65C51.55 10.13 53.34 13.11 54.54 16.6C55.74 20.09 56.34 24.03 56.34 28.39V30.36H41.93V28.39C41.93 26.57 41.71 24.75 41.28 22.93C40.84 21.11 40.11 19.47 39.1 18.02C38.08 16.56 36.7 15.38 34.95 14.47C33.2 13.56 31.02 13.11 28.4 13.11C26 13.11 23.92 13.57 22.18 14.47C20.43 15.38 18.98 16.62 17.81 18.18C16.64 19.75 15.79 21.56 15.24 23.64C14.69 25.71 14.42 27.88 14.42 30.14V49.36C14.42 51.84 14.67 54.11 15.18 56.18C15.69 58.25 16.49 60.06 17.58 61.58C18.67 63.11 20.11 64.29 21.89 65.13C23.67 65.97 25.84 66.39 28.39 66.39Z" fill="#FCF3EB"/>
<path d="M123.17 51.54C123.17 56.05 122.41 60.04 120.88 63.5C119.35 66.96 117.28 69.87 114.66 72.24C112.04 74.61 109.04 76.41 105.65 77.64C102.27 78.88 98.7201 79.5 95.0001 79.5C91.2801 79.5 87.7401 78.88 84.3501 77.64C80.9601 76.4 77.9601 74.6 75.3401 72.24C72.7201 69.88 70.6401 66.96 69.1201 63.5C67.5901 60.04 66.8301 56.06 66.8301 51.54V50.23C66.8301 45.79 67.5901 41.84 69.1201 38.38C70.6501 34.92 72.7201 31.99 75.3401 29.59C77.9601 27.19 80.9601 25.37 84.3501 24.13C87.7301 22.89 91.2801 22.27 95.0001 22.27C98.7201 22.27 102.26 22.89 105.65 24.13C109.04 25.37 112.04 27.19 114.66 29.59C117.28 31.99 119.36 34.92 120.88 38.38C122.41 41.84 123.17 45.79 123.17 50.23V51.54ZM95.0001 66.39C96.9701 66.39 98.8201 66.06 100.57 65.41C102.32 64.76 103.85 63.81 105.16 62.57C106.47 61.33 107.51 59.82 108.27 58.04C109.03 56.26 109.42 54.24 109.42 51.98V49.8C109.42 47.54 109.04 45.52 108.27 43.74C107.51 41.96 106.47 40.45 105.16 39.21C103.85 37.97 102.32 37.03 100.57 36.37C98.8201 35.72 96.9701 35.39 95.0001 35.39C93.0301 35.39 91.1801 35.72 89.4301 36.37C87.6801 37.03 86.1501 37.97 84.8401 39.21C83.5301 40.45 82.4901 41.96 81.7301 43.74C80.9701 45.52 80.5801 47.54 80.5801 49.8V51.98C80.5801 54.24 80.9601 56.26 81.7301 58.04C82.4901 59.82 83.5301 61.33 84.8401 62.57C86.1501 63.81 87.6801 64.75 89.4301 65.41C91.1801 66.07 93.0301 66.39 95.0001 66.39Z" fill="#FCF3EB"/>
<path d="M175.8 70.0998H173.83C173.25 71.3398 172.54 72.5198 171.7 73.6498C170.86 74.7798 169.77 75.7798 168.42 76.6498C167.07 77.5198 165.47 78.2098 163.62 78.7198C161.76 79.2298 159.53 79.4798 156.9 79.4798C153.55 79.4798 150.44 78.8798 147.56 77.6798C144.68 76.4798 142.17 74.6998 140.03 72.3298C137.88 69.9698 136.21 67.0698 135.01 63.6498C133.81 60.2298 133.21 56.2998 133.21 51.8598V49.8898C133.21 45.5198 133.85 41.6298 135.12 38.2098C136.39 34.7898 138.14 31.8998 140.36 29.5298C142.58 27.1698 145.16 25.3598 148.11 24.1298C151.06 22.8898 154.17 22.2698 157.45 22.2698C161.82 22.2698 165.27 23.0898 167.82 24.7298C170.37 26.3698 172.37 28.6798 173.83 31.6598H175.8V1.52979H189.56V77.9598H175.8V70.0998ZM161.38 66.3898C165.67 66.3898 169.15 65.0298 171.81 62.2998C174.47 59.5698 175.8 55.9898 175.8 51.5398V50.2298C175.8 45.7898 174.47 42.1998 171.81 39.4698C169.15 36.7398 165.68 35.3798 161.38 35.3798C157.08 35.3798 153.61 36.7098 150.95 39.3698C148.29 42.0298 146.96 45.6498 146.96 50.2298V51.5398C146.96 56.1298 148.29 59.7498 150.95 62.3998C153.61 65.0598 157.08 66.3898 161.38 66.3898Z" fill="#FCF3EB"/>
<path d="M215.87 55.3598C215.94 56.9598 216.32 58.4398 217.02 59.7798C217.71 61.1298 218.66 62.2898 219.86 63.2698C221.06 64.2498 222.44 65.0198 224.01 65.5598C225.57 66.1098 227.23 66.3798 228.98 66.3798C232.4 66.3798 235.02 65.7798 236.84 64.5798C238.66 63.3798 239.97 61.9398 240.77 60.2698L252.56 66.8198C251.91 68.1998 250.99 69.6398 249.83 71.1298C248.66 72.6198 247.15 73.9898 245.3 75.2198C243.44 76.4598 241.19 77.4798 238.53 78.2798C235.87 79.0798 232.76 79.4798 229.19 79.4798C225.11 79.4798 221.4 78.8198 218.05 77.5098C214.7 76.1998 211.81 74.3098 209.37 71.8298C206.93 69.3598 205.04 66.3298 203.69 62.7698C202.34 59.1998 201.67 55.1598 201.67 50.6498V49.9898C201.67 45.8398 202.38 42.0598 203.8 38.6298C205.22 35.2098 207.17 32.2998 209.64 29.8998C212.11 27.4998 215.01 25.6198 218.32 24.2798C221.63 22.9298 225.18 22.2598 228.97 22.2598C233.63 22.2598 237.63 23.0798 240.98 24.7198C244.33 26.3598 247.09 28.4298 249.28 30.9398C251.46 33.4498 253.06 36.2198 254.08 39.2398C255.1 42.2598 255.61 45.1898 255.61 48.0298V55.3498H215.86L215.87 55.3598ZM228.86 34.7198C225.37 34.7198 222.53 35.6098 220.34 37.3998C218.16 39.1798 216.74 41.2398 216.08 43.5698H241.63C241.19 41.0198 239.83 38.9098 237.54 37.2398C235.25 35.5698 232.35 34.7298 228.86 34.7298V34.7198Z" fill="#FCF3EB"/>
<path d="M12.27 176.46H40C49.46 176.46 56.49 178.66 61.07 183.07C65.66 187.47 67.95 194.3 67.95 203.54V225.81C67.95 235.06 65.66 241.88 61.07 246.28C56.48 250.69 49.46 252.89 40 252.89H12.27V239.02H19.48V190.21H12.27V176.45V176.46ZM40 239.14C45.02 239.14 48.53 237.96 50.54 235.59C52.54 233.23 53.54 229.53 53.54 224.51V203.55C53.54 199.18 52.54 195.87 50.54 193.61C48.54 191.35 45.03 190.23 40 190.23H33.89V239.15H40V239.14Z" fill="#FCF3EB"/>
<path d="M135.65 226.47C135.65 230.98 134.89 234.97 133.36 238.43C131.83 241.89 129.76 244.8 127.14 247.17C124.52 249.54 121.52 251.34 118.13 252.57C114.75 253.81 111.2 254.43 107.48 254.43C103.76 254.43 100.22 253.81 96.8301 252.57C93.4401 251.33 90.4401 249.53 87.8201 247.17C85.2001 244.81 83.1201 241.89 81.6001 238.43C80.0701 234.97 79.3101 230.99 79.3101 226.47V225.16C79.3101 220.72 80.0701 216.77 81.6001 213.31C83.1301 209.85 85.2001 206.92 87.8201 204.52C90.4401 202.12 93.4401 200.3 96.8301 199.06C100.21 197.82 103.76 197.2 107.48 197.2C111.2 197.2 114.74 197.82 118.13 199.06C121.52 200.3 124.52 202.12 127.14 204.52C129.76 206.92 131.84 209.85 133.36 213.31C134.89 216.77 135.65 220.72 135.65 225.16V226.47ZM107.48 241.32C109.45 241.32 111.3 240.99 113.05 240.34C114.8 239.69 116.33 238.74 117.64 237.5C118.95 236.26 119.99 234.75 120.75 232.97C121.51 231.19 121.9 229.17 121.9 226.91V224.73C121.9 222.47 121.52 220.45 120.75 218.67C119.99 216.89 118.95 215.38 117.64 214.14C116.33 212.9 114.8 211.96 113.05 211.3C111.3 210.65 109.45 210.32 107.48 210.32C105.51 210.32 103.66 210.65 101.91 211.3C100.16 211.96 98.6301 212.9 97.3201 214.14C96.0101 215.38 94.9701 216.89 94.2101 218.67C93.4501 220.45 93.0601 222.47 93.0601 224.73V226.91C93.0601 229.17 93.4401 231.19 94.2101 232.97C94.9701 234.75 96.0101 236.26 97.3201 237.5C98.6301 238.74 100.16 239.68 101.91 240.34C103.66 241 105.51 241.32 107.48 241.32Z" fill="#FCF3EB"/>
<path d="M141.48 200.94H176.2V265.8C176.2 269.58 175.18 272.39 173.14 274.21C171.1 276.03 168.45 276.94 165.17 276.94H139.51V263.84H159.16C161.34 263.84 162.44 262.64 162.44 260.24V214.05H141.48V200.95V200.94ZM179.48 184.89C179.48 186.35 179.21 187.71 178.66 188.98C178.11 190.25 177.37 191.35 176.42 192.26C175.47 193.17 174.36 193.9 173.09 194.44C171.82 194.99 170.49 195.26 169.1 195.26C167.64 195.26 166.3 194.99 165.06 194.44C163.82 193.89 162.73 193.17 161.78 192.26C160.83 191.35 160.09 190.26 159.54 188.98C158.99 187.71 158.72 186.34 158.72 184.89C158.72 183.44 158.99 182.07 159.54 180.8C160.09 179.53 160.83 178.44 161.78 177.52C162.72 176.61 163.82 175.88 165.06 175.34C166.3 174.79 167.64 174.52 169.1 174.52C170.56 174.52 171.81 174.79 173.09 175.34C174.36 175.89 175.47 176.61 176.42 177.52C177.37 178.43 178.11 179.52 178.66 180.8C179.21 182.07 179.48 183.44 179.48 184.89Z" fill="#FCF3EB"/>
<path d="M243.35 226.38C243.35 230.89 242.59 234.88 241.06 238.34C239.53 241.8 237.46 244.71 234.84 247.08C232.22 249.45 229.22 251.25 225.83 252.48C222.45 253.72 218.9 254.34 215.18 254.34C211.46 254.34 207.92 253.72 204.53 252.48C201.14 251.24 198.14 249.44 195.52 247.08C192.9 244.72 190.82 241.8 189.3 238.34C187.77 234.88 187.01 230.9 187.01 226.38V225.07C187.01 220.63 187.77 216.68 189.3 213.22C190.83 209.76 192.9 206.83 195.52 204.43C198.14 202.03 201.14 200.21 204.53 198.97C207.91 197.73 211.46 197.11 215.18 197.11C218.9 197.11 222.44 197.73 225.83 198.97C229.22 200.21 232.22 202.03 234.84 204.43C237.46 206.83 239.54 209.76 241.06 213.22C242.59 216.68 243.35 220.63 243.35 225.07V226.38ZM215.18 241.23C217.15 241.23 219 240.9 220.75 240.25C222.5 239.6 224.03 238.65 225.34 237.41C226.65 236.17 227.69 234.66 228.45 232.88C229.21 231.1 229.6 229.08 229.6 226.82V224.64C229.6 222.38 229.22 220.36 228.45 218.58C227.69 216.8 226.65 215.29 225.34 214.05C224.03 212.81 222.5 211.87 220.75 211.21C219 210.56 217.15 210.23 215.18 210.23C213.21 210.23 211.36 210.56 209.61 211.21C207.86 211.87 206.33 212.81 205.02 214.05C203.71 215.29 202.67 216.8 201.91 218.58C201.15 220.36 200.76 222.38 200.76 224.64V226.82C200.76 229.08 201.14 231.1 201.91 232.88C202.67 234.66 203.71 236.17 205.02 237.41C206.33 238.65 207.86 239.59 209.61 240.25C211.36 240.91 213.21 241.23 215.18 241.23Z" fill="#FCF3EB"/>
<path d="M108.8 129.41C112.49 129.41 115.07 132.06 115.07 135.62C115.07 139.18 112.48 141.83 108.8 141.83C105.12 141.83 102.52 139.18 102.52 135.62C102.52 132.06 105.11 129.41 108.8 129.41Z" fill="#FCF3EB"/>
<path d="M146.74 129.41C150.43 129.41 153.01 132.06 153.01 135.62C153.01 139.18 150.42 141.83 146.74 141.83C143.06 141.83 140.46 139.18 140.46 135.62C140.46 132.06 143.05 129.41 146.74 129.41Z" fill="#FCF3EB"/>
<path d="M136.83 91.84C136.83 98.35 140.75 100.98 147.43 100.98H161.42C178.68 100.98 187.71 107.72 187.71 124.28V132.85H169.66V127.37C169.66 121.54 166.52 119.72 160.11 119.72H145.98C135.39 119.72 129.5 115.38 127.8 106.93C126.1 115.38 120.22 119.72 109.62 119.72H95.4901C89.0801 119.72 85.9401 121.55 85.9401 127.37V132.85H67.8901V124.28C67.8901 107.71 76.9101 100.98 94.1801 100.98H108.17C114.84 100.98 118.76 98.35 118.76 91.84V87.04H136.81V91.84H136.83Z" fill="#724CF9"/>
<path d="M118.79 173.86C118.79 167.35 114.87 164.72 108.19 164.72H94.2001C76.9401 164.72 67.9102 157.98 67.9102 141.42V132.85H85.9602V138.33C85.9602 144.16 89.1002 145.98 95.5102 145.98H109.64C120.23 145.98 126.12 150.32 127.82 158.77C129.52 150.32 135.4 145.98 146 145.98H160.13C166.54 145.98 169.68 144.15 169.68 138.33V132.85H187.73V141.42C187.73 157.99 178.71 164.72 161.44 164.72H147.45C140.78 164.72 136.86 167.35 136.86 173.86V178.66H118.81V173.86H118.79Z" fill="#F95608"/>
</g>
<defs>
<clipPath id="clip0_109_4009">
<rect width="255.62" height="276.94" fill="white"/>
</clipPath>
</defs>
</svg>
