<svg width="268" height="71" viewBox="0 0 268 71" fill="none" xmlns="http://www.w3.org/2000/svg">
<path d="M22.52 35.7C22.52 30.69 23.35 26.46 25.02 23.13C23.7 21.08 21.93 19.59 19.67 18.64C17.09 22.72 15.66 27.99 15.47 34.29C17.42 35.32 19.77 36.01 22.54 36.35C22.54 36.13 22.52 35.93 22.52 35.7Z" fill="#FFAD29"/>
<path d="M46.51 44.18V56.52H40.65C38.49 56.52 36.54 56.27 34.76 55.81C33.35 57.61 31.71 59.18 29.85 60.48C32.85 61.56 36.28 62.13 40.16 62.13H53.34V36.02C51.7 39.3 49.42 42.04 46.51 44.18Z" fill="#FFAD29"/>
<path d="M17.72 48.74C18.23 49.99 18.83 51.15 19.51 52.24C21.01 51.59 22.32 50.7 23.41 49.56C21.41 49.41 19.51 49.14 17.72 48.74Z" fill="#FFAD29"/>
<path d="M0 8.85V22.35C0 38.05 9.92001 46.75 26.92 46.75C43.92 46.75 53.35 38.05 53.35 22.03V8.85H0ZM47.74 21.54C47.74 33.66 40.34 39.68 26.92 39.68C13.5 39.68 5.61 33.66 5.61 21.54V15.68H47.74V21.54Z" fill="#FFAD29"/>
<path d="M35.45 48.89C32.92 49.4 30.17 49.67 27.22 49.69C24.24 54.13 19.4 56.54 12.69 56.54H6.83V43.99C3.94 41.85 1.64 39.14 0 35.92V62.15H13.5C24.34 62.15 31.84 57.42 35.45 48.89Z" fill="#FFAD29"/>
<path d="M30.81 36.39C33.59 36.09 35.95 35.45 37.9 34.46C37.8 28.03 36.41 22.7 33.81 18.6H25.21C28.97 22.1 30.85 27.71 30.85 35.2C30.85 35.61 30.83 35.99 30.82 36.39H30.81Z" fill="#FFAD29"/>
<path d="M62.05 8.54H69.938C77.146 8.54 81.94 13.198 81.94 20.27C81.94 27.274 77.146 32 69.938 32H62.05C61.812 32 61.574 31.762 61.574 31.49V9.05C61.574 8.778 61.812 8.54 62.05 8.54ZM68.578 25.88H70.346C72.964 25.88 74.732 23.636 74.732 20.27C74.732 16.904 72.964 14.66 70.346 14.66H68.578V25.88ZM86.9813 19.488L85.0433 15.408C84.9413 15.17 85.0093 14.932 85.2133 14.762C87.1513 13.538 89.8713 12.824 92.5913 12.824C98.4733 12.824 101.193 15.918 101.193 22.684V31.49C101.193 31.762 100.955 32 100.683 32H96.3993C96.1273 32 95.8553 31.762 95.8553 31.49L95.6173 30.572C94.4953 31.762 92.2513 32.51 89.7693 32.51C85.8593 32.51 83.2753 29.994 83.3093 26.254C83.3433 22.922 85.9273 20.712 89.7693 20.712C91.7413 20.712 93.5093 21.426 94.1893 22.514V21.086C94.1893 19.624 93.1353 18.672 91.5713 18.672C90.2453 18.672 88.6133 19.114 87.4913 19.76C87.3213 19.862 87.1173 19.726 86.9813 19.488ZM94.1893 26.628V25.88C93.6113 25.302 93.0333 25.03 92.3193 25.03C91.4693 25.03 90.8913 25.506 90.8913 26.254C90.8913 27.002 91.4693 27.478 92.3193 27.478C93.0333 27.478 93.6113 27.206 94.1893 26.628ZM106.77 19.488L104.832 15.408C104.73 15.17 104.798 14.932 105.002 14.762C106.94 13.538 109.66 12.824 112.38 12.824C118.262 12.824 120.982 15.918 120.982 22.684V31.49C120.982 31.762 120.744 32 120.472 32H116.188C115.916 32 115.644 31.762 115.644 31.49L115.406 30.572C114.284 31.762 112.04 32.51 109.558 32.51C105.648 32.51 103.064 29.994 103.098 26.254C103.132 22.922 105.716 20.712 109.558 20.712C111.53 20.712 113.298 21.426 113.978 22.514V21.086C113.978 19.624 112.924 18.672 111.36 18.672C110.034 18.672 108.402 19.114 107.28 19.76C107.11 19.862 106.906 19.726 106.77 19.488ZM113.978 26.628V25.88C113.4 25.302 112.822 25.03 112.108 25.03C111.258 25.03 110.68 25.506 110.68 26.254C110.68 27.002 111.258 27.478 112.108 27.478C112.822 27.478 113.4 27.206 113.978 26.628ZM128.259 13.64L128.701 14.728C129.789 13.538 132.101 12.824 134.175 12.824C138.799 12.824 141.315 14.966 141.315 20.27V31.49C141.315 31.762 141.077 32 140.805 32H134.821C134.549 32 134.311 31.762 134.345 31.49V21.324C134.345 19.964 133.733 19.182 132.679 19.182C130.741 19.182 130.435 21.086 130.435 21.086V31.49C130.435 31.762 130.197 32 129.925 32H123.941C123.669 32 123.431 31.762 123.431 31.49V13.776C123.431 13.47 123.601 13.3 123.907 13.3H127.715C127.953 13.3 128.157 13.402 128.259 13.64ZM143.179 30.028L144.913 26.084C144.981 25.88 145.185 25.846 145.355 25.948C146.681 26.73 148.109 27.342 149.265 27.342C149.979 27.41 150.455 27.002 150.455 26.492C150.455 24.758 143.009 25.302 143.009 18.91C143.009 15.272 146.103 12.824 150.727 12.824C152.937 12.824 155.589 13.606 157.391 14.762C157.561 14.898 157.663 15.068 157.595 15.238L155.861 19.25C155.793 19.454 155.589 19.488 155.419 19.386C154.093 18.536 152.665 17.992 151.509 17.992C150.795 17.924 150.319 18.264 150.319 18.808C150.319 20.61 157.765 19.964 157.765 26.424C157.765 30.062 154.773 32.51 150.251 32.51C148.041 32.51 145.287 31.728 143.383 30.572C143.213 30.402 143.111 30.232 143.179 30.028ZM164.548 8.54H172.436C179.644 8.54 184.438 13.198 184.438 20.27C184.438 27.274 179.644 32 172.436 32H164.548C164.31 32 164.072 31.762 164.072 31.49V9.05C164.072 8.778 164.31 8.54 164.548 8.54ZM171.076 25.88H172.844C175.462 25.88 177.23 23.636 177.23 20.27C177.23 16.904 175.462 14.66 172.844 14.66H171.076V25.88ZM189.887 5.82C192.131 5.82 193.627 7.214 193.627 9.322C193.627 11.328 192.131 12.688 189.887 12.688C187.643 12.688 186.147 11.328 186.147 9.322C186.147 7.214 187.643 5.82 189.887 5.82ZM186.929 13.3H192.913C193.185 13.3 193.423 13.538 193.423 13.776V31.49C193.423 31.762 193.185 32 192.913 32H186.929C186.657 32 186.419 31.762 186.419 31.49V13.776C186.419 13.538 186.657 13.3 186.929 13.3ZM207.679 30.538V29.552C207.135 30.64 205.503 31.354 203.599 31.354C198.635 31.354 195.337 27.784 195.337 22.412C195.337 16.394 198.397 12.824 203.599 12.824C206.217 12.824 208.291 13.538 209.175 14.762L209.787 13.81C209.991 13.504 210.297 13.3 210.569 13.3H214.173C214.479 13.3 214.683 13.504 214.683 13.81V30.266C214.683 35.4 210.025 38.834 204.245 38.834C200.879 38.834 197.887 38.052 196.221 36.692C196.017 36.522 195.949 36.284 196.017 36.114L197.751 31.898C197.853 31.66 198.057 31.558 198.261 31.694C199.723 32.884 201.967 33.598 204.245 33.598C206.387 33.598 207.679 32.476 207.679 30.538ZM207.679 24.146V20.712C207.679 20.712 207.169 19.182 205.333 19.182C203.633 19.182 202.647 20.372 202.647 22.412C202.647 24.452 203.633 25.676 205.333 25.676C207.169 25.676 207.679 24.146 207.679 24.146ZM220.667 5.82C222.911 5.82 224.407 7.214 224.407 9.322C224.407 11.328 222.911 12.688 220.667 12.688C218.423 12.688 216.927 11.328 216.927 9.322C216.927 7.214 218.423 5.82 220.667 5.82ZM217.709 13.3H223.693C223.965 13.3 224.203 13.538 224.203 13.776V31.49C224.203 31.762 223.965 32 223.693 32H217.709C217.437 32 217.199 31.762 217.199 31.49V13.776C217.199 13.538 217.437 13.3 217.709 13.3ZM235.194 13.3H237.744C238.05 13.3 238.254 13.504 238.254 13.776L237.88 17.074C237.846 17.346 237.642 17.584 237.37 17.584H235.194V31.49C235.194 31.762 234.956 32 234.684 32H228.7C228.428 32 228.19 31.762 228.19 31.49V17.584H226.252C226.014 17.584 225.776 17.38 225.776 17.108V13.81C225.776 13.504 226.014 13.3 226.252 13.3H228.19V9.594C228.19 9.356 228.428 9.152 228.7 9.118L234.684 8.54C234.956 8.506 235.194 8.778 235.194 9.016V13.3ZM241.907 19.488L239.969 15.408C239.867 15.17 239.935 14.932 240.139 14.762C242.077 13.538 244.797 12.824 247.517 12.824C253.399 12.824 256.119 15.918 256.119 22.684V31.49C256.119 31.762 255.881 32 255.609 32H251.325C251.053 32 250.781 31.762 250.781 31.49L250.543 30.572C249.421 31.762 247.177 32.51 244.695 32.51C240.785 32.51 238.201 29.994 238.235 26.254C238.269 22.922 240.853 20.712 244.695 20.712C246.667 20.712 248.435 21.426 249.115 22.514V21.086C249.115 19.624 248.061 18.672 246.497 18.672C245.171 18.672 243.539 19.114 242.417 19.76C242.247 19.862 242.043 19.726 241.907 19.488ZM249.115 26.628V25.88C248.537 25.302 247.959 25.03 247.245 25.03C246.395 25.03 245.817 25.506 245.817 26.254C245.817 27.002 246.395 27.478 247.245 27.478C247.959 27.478 248.537 27.206 249.115 26.628ZM259.078 7.35H265.062C265.334 7.35 265.572 7.588 265.572 7.826V31.49C265.572 31.762 265.334 32 265.062 32H259.078C258.806 32 258.568 31.762 258.568 31.49V7.826C258.568 7.588 258.806 7.35 259.078 7.35Z" fill="#FFAD29"/>
<path d="M62.05 38.54H69.938C77.146 38.54 81.94 43.198 81.94 50.27C81.94 57.274 77.146 62 69.938 62H62.05C61.812 62 61.574 61.762 61.574 61.49V39.05C61.574 38.778 61.812 38.54 62.05 38.54ZM68.578 55.88H70.346C72.964 55.88 74.732 53.636 74.732 50.27C74.732 46.904 72.964 44.66 70.346 44.66H68.578V55.88ZM99.1533 55.88L100.615 60.096C100.683 60.334 100.615 60.47 100.377 60.606C98.5753 61.796 95.9573 62.51 93.3393 62.51C87.3213 62.51 83.3093 58.566 83.3093 52.684C83.3093 46.768 87.2533 42.824 93.1693 42.824C98.8133 42.824 102.145 46.462 102.145 52.65C102.145 53.16 102.111 53.67 102.009 54.18C101.975 54.452 101.805 54.588 101.499 54.588H90.5853C90.5853 54.588 90.5853 56.73 93.4413 56.73C95.1753 56.73 97.1133 56.322 98.6433 55.608C98.8813 55.506 99.0853 55.642 99.1533 55.88ZM90.5513 51.018H95.3793C95.3793 49.522 94.4613 48.536 93.1013 48.536C91.5713 48.536 90.5513 49.522 90.5513 51.018ZM103.667 60.028L105.401 56.084C105.469 55.88 105.673 55.846 105.843 55.948C107.169 56.73 108.597 57.342 109.753 57.342C110.467 57.41 110.943 57.002 110.943 56.492C110.943 54.758 103.497 55.302 103.497 48.91C103.497 45.272 106.591 42.824 111.215 42.824C113.425 42.824 116.077 43.606 117.879 44.762C118.049 44.898 118.151 45.068 118.083 45.238L116.349 49.25C116.281 49.454 116.077 49.488 115.907 49.386C114.581 48.536 113.153 47.992 111.997 47.992C111.283 47.924 110.807 48.264 110.807 48.808C110.807 50.61 118.253 49.964 118.253 56.424C118.253 60.062 115.261 62.51 110.739 62.51C108.529 62.51 105.775 61.728 103.871 60.572C103.701 60.402 103.599 60.232 103.667 60.028ZM123.68 35.82C125.924 35.82 127.42 37.214 127.42 39.322C127.42 41.328 125.924 42.688 123.68 42.688C121.436 42.688 119.94 41.328 119.94 39.322C119.94 37.214 121.436 35.82 123.68 35.82ZM120.722 43.3H126.706C126.978 43.3 127.216 43.538 127.216 43.776V61.49C127.216 61.762 126.978 62 126.706 62H120.722C120.45 62 120.212 61.762 120.212 61.49V43.776C120.212 43.538 120.45 43.3 120.722 43.3ZM141.472 60.538V59.552C140.928 60.64 139.296 61.354 137.392 61.354C132.428 61.354 129.13 57.784 129.13 52.412C129.13 46.394 132.19 42.824 137.392 42.824C140.01 42.824 142.084 43.538 142.968 44.762L143.58 43.81C143.784 43.504 144.09 43.3 144.362 43.3H147.966C148.272 43.3 148.476 43.504 148.476 43.81V60.266C148.476 65.4 143.818 68.834 138.038 68.834C134.672 68.834 131.68 68.052 130.014 66.692C129.81 66.522 129.742 66.284 129.81 66.114L131.544 61.898C131.646 61.66 131.85 61.558 132.054 61.694C133.516 62.884 135.76 63.598 138.038 63.598C140.18 63.598 141.472 62.476 141.472 60.538ZM141.472 54.146V50.712C141.472 50.712 140.962 49.182 139.126 49.182C137.426 49.182 136.44 50.372 136.44 52.412C136.44 54.452 137.426 55.676 139.126 55.676C140.962 55.676 141.472 54.146 141.472 54.146ZM155.752 43.64L156.194 44.728C157.282 43.538 159.594 42.824 161.668 42.824C166.292 42.824 168.808 44.966 168.808 50.27V61.49C168.808 61.762 168.57 62 168.298 62H162.314C162.042 62 161.804 61.762 161.838 61.49V51.324C161.838 49.964 161.226 49.182 160.172 49.182C158.234 49.182 157.928 51.086 157.928 51.086V61.49C157.928 61.762 157.69 62 157.418 62H151.434C151.162 62 150.924 61.762 150.924 61.49V43.776C150.924 43.47 151.094 43.3 151.4 43.3H155.208C155.446 43.3 155.65 43.402 155.752 43.64ZM170.671 60.028L172.405 56.084C172.473 55.88 172.677 55.846 172.847 55.948C174.173 56.73 175.601 57.342 176.757 57.342C177.471 57.41 177.947 57.002 177.947 56.492C177.947 54.758 170.501 55.302 170.501 48.91C170.501 45.272 173.595 42.824 178.219 42.824C180.429 42.824 183.081 43.606 184.883 44.762C185.053 44.898 185.155 45.068 185.087 45.238L183.353 49.25C183.285 49.454 183.081 49.488 182.911 49.386C181.585 48.536 180.157 47.992 179.001 47.992C178.287 47.924 177.811 48.264 177.811 48.808C177.811 50.61 185.257 49.964 185.257 56.424C185.257 60.062 182.265 62.51 177.743 62.51C175.533 62.51 172.779 61.728 170.875 60.572C170.705 60.402 170.603 60.232 170.671 60.028Z" fill="#FFAD29"/>
</svg>
