<svg width="62" height="62" viewBox="0 0 62 62" fill="none" xmlns="http://www.w3.org/2000/svg">
<path d="M45.82 0.0900879H16.27C7.56047 0.0900879 0.5 7.15055 0.5 15.8601V45.4101C0.5 54.1196 7.56047 61.1801 16.27 61.1801H45.82C54.5295 61.1801 61.59 54.1196 61.59 45.4101V15.8601C61.59 7.15055 54.5295 0.0900879 45.82 0.0900879Z" fill="#444444"/>
<path d="M30.95 17.0001L39.99 43.5601C40.11 43.8001 39.95 44.0801 39.63 44.0801H31.71C31.35 44.0801 31.03 43.8801 30.87 43.5601L29.67 39.3601H22.15L20.95 43.5601C20.79 43.8801 20.47 44.0801 20.11 44.0801H12.19C11.87 44.0801 11.71 43.8001 11.83 43.5601L20.87 17.0001C20.99 16.7601 21.43 16.4801 21.83 16.4801H29.99C30.39 16.4801 30.83 16.7601 30.95 17.0001ZM28.07 33.6401L25.91 26.0401L23.75 33.6401H28.07ZM44.945 13.2801C47.585 13.2801 49.345 14.9201 49.345 17.4001C49.345 19.7601 47.585 21.3601 44.945 21.3601C42.305 21.3601 40.545 19.7601 40.545 17.4001C40.545 14.9201 42.305 13.2801 44.945 13.2801ZM41.465 22.0801H48.505C48.825 22.0801 49.105 22.3601 49.105 22.6401V43.4801C49.105 43.8001 48.825 44.0801 48.505 44.0801H41.465C41.145 44.0801 40.865 43.8001 40.865 43.4801V22.6401C40.865 22.3601 41.145 22.0801 41.465 22.0801Z" fill="#7EBDC2"/>
</svg>
