<svg width="62" height="62" viewBox="0 0 62 62" fill="none" xmlns="http://www.w3.org/2000/svg">
<path d="M45.82 0.359863H16.27C7.56047 0.359863 0.5 7.42032 0.5 16.1299V45.6799C0.5 54.3894 7.56047 61.4498 16.27 61.4498H45.82C54.5295 61.4498 61.59 54.3894 61.59 45.6799V16.1299C61.59 7.42032 54.5295 0.359863 45.82 0.359863Z" fill="#444444"/>
<path d="M24.6699 17.3199L33.7099 43.8799C33.8299 44.1199 33.6699 44.3999 33.3499 44.3999H25.4299C25.0699 44.3999 24.7499 44.1999 24.5899 43.8799L23.3899 39.6799H15.8699L14.6699 43.8799C14.5099 44.1999 14.1899 44.3999 13.8299 44.3999H5.90994C5.58994 44.3999 5.42994 44.1199 5.54994 43.8799L14.5899 17.3199C14.7099 17.0799 15.1499 16.7999 15.5499 16.7999H23.7099C24.1099 16.7999 24.5499 17.0799 24.6699 17.3199ZM21.7899 33.9599L19.6299 26.3599L17.4699 33.9599H21.7899ZM40.1849 22.7999L40.7049 24.0799C41.9849 22.6799 44.7049 21.8399 47.1449 21.8399C52.5849 21.8399 55.5449 24.3599 55.5449 30.5999V43.7999C55.5449 44.1199 55.2649 44.3999 54.9449 44.3999H47.9049C47.5849 44.3999 47.3049 44.1199 47.3449 43.7999V31.8399C47.3449 30.2399 46.6249 29.3199 45.3849 29.3199C43.1049 29.3199 42.7449 31.5599 42.7449 31.5599V43.7999C42.7449 44.1199 42.4649 44.3999 42.1449 44.3999H35.1049C34.7849 44.3999 34.5049 44.1199 34.5049 43.7999V22.9599C34.5049 22.5999 34.7049 22.3999 35.0649 22.3999H39.5449C39.8249 22.3999 40.0649 22.5199 40.1849 22.7999Z" fill="#7EBDC2"/>
</svg>
