<svg width="62" height="62" viewBox="0 0 62 62" fill="none" xmlns="http://www.w3.org/2000/svg">
<path d="M45.82 0.179932H16.27C7.56047 0.179932 0.5 7.24039 0.5 15.9499V45.4999C0.5 54.2095 7.56047 61.2699 16.27 61.2699H45.82C54.5295 61.2699 61.59 54.2095 61.59 45.4999V15.9499C61.59 7.24039 54.5295 0.179932 45.82 0.179932Z" fill="#444444"/>
<rect x="15.5" y="6.17993" width="31" height="16.3611" rx="8.18056" fill="#7EBDC2"/>
<path d="M15.5 30.7216C15.5 26.2036 19.1626 22.541 23.6806 22.541H31V38.9021H23.6806C19.1626 38.9021 15.5 35.2396 15.5 30.7216Z" fill="#7EBDC2"/>
<rect x="31" y="22.541" width="15.5" height="16.3611" rx="7.75" fill="#7EBDC2"/>
<path d="M15.5 47.0827C15.5 42.5647 19.1626 38.9021 23.6806 38.9021H31V47.5132C31 51.7934 27.5302 55.2632 23.25 55.2632C18.9698 55.2632 15.5 51.7934 15.5 47.5132V47.0827Z" fill="#7EBDC2"/>
</svg>
