<svg width="62" height="62" viewBox="0 0 62 62" fill="none" xmlns="http://www.w3.org/2000/svg">
<path d="M45.82 0.540039H16.27C7.56047 0.540039 0.5 7.60051 0.5 16.31V45.86C0.5 54.5696 7.56047 61.63 16.27 61.63H45.82C54.5295 61.63 61.59 54.5696 61.59 45.86V16.31C61.59 7.60051 54.5295 0.540039 45.82 0.540039Z" fill="#444444"/>
<path d="M39.402 11.76L23.3066 26.0661L16.073 19.6381L11.5785 25.9728L17.4977 31.239L11.5701 36.5052L16.0646 42.8399L23.3066 36.4034L39.402 50.7095V50.7434L49.4001 47.3174V15.1945L39.402 11.777V11.76ZM39.402 32.5534V40.3636L29.1156 31.2305L39.402 22.0973V32.5619V32.5534Z" fill="#7EBDC2"/>
</svg>
