<svg width="62" height="62" viewBox="0 0 62 62" fill="none" xmlns="http://www.w3.org/2000/svg">
<path d="M45.82 0.449951H16.27C7.56047 0.449951 0.5 7.51041 0.5 16.2199V45.7699C0.5 54.4795 7.56047 61.5399 16.27 61.5399H45.82C54.5295 61.5399 61.59 54.4795 61.59 45.7699V16.2199C61.59 7.51041 54.5295 0.449951 45.82 0.449951Z" fill="#444444"/>
<path d="M14 16.4H23.44C30.44 16.4 34.64 20.2 34.64 25.92C34.64 31.64 30.44 35.44 23.44 35.44H21.8V43.44C21.8 43.72 21.52 44 21.16 44H14C13.72 44 13.44 43.72 13.44 43.44V17C13.44 16.68 13.72 16.4 14 16.4ZM21.72 28.28H23.8C25.2 28.28 26.16 27.32 26.16 25.92C26.16 24.52 25.2 23.56 23.8 23.56H21.72V28.28ZM47.9706 22H49.0106C49.3306 22 49.5706 22.24 49.5706 22.56V27.76C49.5706 28.08 49.3306 28.32 49.0106 28.32H47.9706C46.4506 28.32 45.0906 29 44.5706 30V43.4C44.5706 43.72 44.2906 44 43.9706 44H36.9306C36.6106 44 36.3306 43.72 36.3306 43.4V22.6C36.3306 22.32 36.6106 22.04 36.9306 22.04H41.4506C41.7706 22.04 41.9706 22.32 42.0906 22.64L42.6906 24.4C43.8906 22.92 45.8506 22 47.9706 22Z" fill="#7EBDC2"/>
</svg>
