<svg width="62" height="62" viewBox="0 0 62 62" fill="none" xmlns="http://www.w3.org/2000/svg">
<path d="M45.82 0.27002H16.27C7.56047 0.27002 0.5 7.33049 0.5 16.04V45.59C0.5 54.2995 7.56047 61.36 16.27 61.36H45.82C54.5295 61.36 61.59 54.2995 61.59 45.59V16.04C61.59 7.33049 54.5295 0.27002 45.82 0.27002Z" fill="#444444"/>
<path d="M14.4399 15.9801H21.5199C21.8799 15.9801 22.1199 16.2601 22.1199 16.5801V43.0201C22.1199 43.3001 21.8799 43.5801 21.5199 43.5801H14.4399C14.1599 43.5801 13.8799 43.3001 13.8799 43.0201V16.5801C13.8799 16.2601 14.1599 15.9801 14.4399 15.9801ZM40.4128 14.5801H47.4528C47.7728 14.5801 48.0528 14.8601 48.0528 15.1401V42.9801C48.0528 43.3001 47.7728 43.5801 47.4528 43.5801H42.9328C42.6528 43.5801 42.4528 43.3401 42.2928 42.9801L41.6928 41.5401C40.1728 43.1401 37.6128 44.1801 34.9328 44.1801C28.6128 44.1801 24.3728 39.5401 24.3728 32.5801C24.3728 25.6601 28.6128 21.0201 34.9328 21.0201C36.8128 21.0201 38.6128 21.5801 39.8128 22.5401V15.1401C39.8128 14.8601 40.0928 14.5801 40.4128 14.5801ZM39.8128 35.1401V30.1001C39.3328 28.7801 38.0528 27.9001 36.6528 27.9001C34.4528 27.9001 32.9728 29.7401 32.9728 32.5401C32.9728 35.4201 34.4528 37.3401 36.6528 37.3401C38.0528 37.3401 39.3328 36.4601 39.8128 35.1401Z" fill="#7EBDC2"/>
</svg>
