<svg width="62" height="62" viewBox="0 0 62 62" fill="none" xmlns="http://www.w3.org/2000/svg">
<path d="M45.82 0H16.27C7.56047 0 0.5 7.06047 0.5 15.77V45.32C0.5 54.0295 7.56047 61.09 16.27 61.09H45.82C54.5295 61.09 61.59 54.0295 61.59 45.32V15.77C61.59 7.06047 54.5295 0 45.82 0Z" fill="#444444"/>
<path d="M12.9399 16.19H22.3799C29.3799 16.19 33.5799 19.99 33.5799 25.71C33.5799 31.43 29.3799 35.23 22.3799 35.23H20.7399V43.23C20.7399 43.51 20.4599 43.79 20.0999 43.79H12.9399C12.6599 43.79 12.3799 43.51 12.3799 43.23V16.79C12.3799 16.47 12.6599 16.19 12.9399 16.19ZM20.6599 28.07H22.7399C24.1399 28.07 25.0999 27.11 25.0999 25.71C25.0999 24.31 24.1399 23.35 22.7399 23.35H20.6599V28.07ZM34.8306 41.47L36.8706 36.83C36.9506 36.59 37.1906 36.55 37.3906 36.67C38.9506 37.59 40.6306 38.31 41.9906 38.31C42.8306 38.39 43.3906 37.91 43.3906 37.31C43.3906 35.27 34.6306 35.91 34.6306 28.39C34.6306 24.11 38.2706 21.23 43.7106 21.23C46.3106 21.23 49.4306 22.15 51.5506 23.51C51.7506 23.67 51.8706 23.87 51.7906 24.07L49.7506 28.79C49.6706 29.03 49.4306 29.07 49.2306 28.95C47.6706 27.95 45.9906 27.31 44.6306 27.31C43.7906 27.23 43.2306 27.63 43.2306 28.27C43.2306 30.39 51.9906 29.63 51.9906 37.23C51.9906 41.51 48.4706 44.39 43.1506 44.39C40.5506 44.39 37.3106 43.47 35.0706 42.11C34.8706 41.91 34.7506 41.71 34.8306 41.47Z" fill="#7EBDC2"/>
</svg>
