<svg width="62" height="62" viewBox="0 0 62 62" fill="none" xmlns="http://www.w3.org/2000/svg">
<path d="M45.32 0H15.77C7.06047 0 0 7.06047 0 15.77V45.32C0 54.0295 7.06047 61.09 15.77 61.09H45.32C54.0295 61.09 61.09 54.0295 61.09 45.32V15.77C61.09 7.06047 54.0295 0 45.32 0Z" fill="#7D7ABC"/>
<path d="M42.9014 5H18.1886C10.9047 5 5 10.9047 5 18.1886V42.9014C5 50.1853 10.9047 56.09 18.1886 56.09H42.9014C50.1853 56.09 56.09 50.1853 56.09 42.9014V18.1886C56.09 10.9047 50.1853 5 42.9014 5Z" fill="#444444"/>
<path d="M39.9324 11H21.0676C15.5074 11 11 15.5074 11 21.0676V39.9324C11 45.4926 15.5074 50 21.0676 50H39.9324C45.4926 50 50 45.4926 50 39.9324V21.0676C50 15.5074 45.4926 11 39.9324 11Z" fill="#7D7ABC"/>
<circle cx="30.5" cy="30.5" r="12.5" fill="#444444"/>
<circle cx="30.5" cy="30.5" r="8.5" fill="#7D7ABC"/>
<circle cx="43" cy="18" r="3" fill="#444444"/>
</svg>
