<svg width="62" height="62" viewBox="0 0 62 62" fill="none" xmlns="http://www.w3.org/2000/svg">
<path d="M45.32 0H15.77C7.06047 0 0 7.06046 0 15.77V45.32C0 54.0295 7.06047 61.09 15.77 61.09H45.32C54.0295 61.09 61.09 54.0295 61.09 45.32V15.77C61.09 7.06046 54.0295 0 45.32 0Z" fill="#7EBDC2"/>
<path d="M18.6 13.2C21.24 13.2 23 14.84 23 17.32C23 19.68 21.24 21.28 18.6 21.28C15.96 21.28 14.2 19.68 14.2 17.32C14.2 14.84 15.96 13.2 18.6 13.2ZM15.12 22H22.16C22.48 22 22.76 22.28 22.76 22.56V43.4C22.76 43.72 22.48 44 22.16 44H15.12C14.8 44 14.52 43.72 14.52 43.4V22.56C14.52 22.28 14.8 22 15.12 22ZM31.3309 22.4L31.8509 23.68C33.1309 22.28 35.8509 21.44 38.2909 21.44C43.7309 21.44 46.6909 23.96 46.6909 30.2V43.4C46.6909 43.72 46.4109 44 46.0909 44H39.0509C38.7309 44 38.4509 43.72 38.4909 43.4V31.44C38.4909 29.84 37.7709 28.92 36.5309 28.92C34.2509 28.92 33.8909 31.16 33.8909 31.16V43.4C33.8909 43.72 33.6109 44 33.2909 44H26.2509C25.9309 44 25.6509 43.72 25.6509 43.4V22.56C25.6509 22.2 25.8509 22 26.2109 22H30.6909C30.9709 22 31.2109 22.12 31.3309 22.4Z" fill="#444444"/>
</svg>
