<svg width="342" height="326" viewBox="0 0 342 326" fill="none" xmlns="http://www.w3.org/2000/svg">
<path d="M332.226 172.444L315.675 174.851L260.054 174.537V162.275L333.029 171.816L332.226 172.444Z" fill="white"/>
<path d="M44.4587 64.9163C47.5284 63.9744 61.063 49.8991 61.0455 53.1083C59.7374 54.1723 49.0632 63.6605 49.5167 64.3233C50.1097 65.2128 51.1562 63.7477 51.226 63.7826C53.1271 64.6023 52.8655 67.9511 48.7144 67.3058C26.4765 100.532 39.5925 136.061 74.7371 153.24C74.6499 152.054 75.958 153.607 76.0801 153.537C76.6556 153.136 82.7427 145.392 84.2078 157.339C95.1436 161.229 114.87 165.24 126.381 165.746C128.108 164.438 125.474 163.234 125.335 162.572C122.265 149.037 145.323 152.944 137.178 165.484C141.137 165.048 144.642 165.031 148.462 163.583C156.555 160.531 153.538 154.531 165.363 158.176C167.421 158.386 162.154 152.822 166.95 150.694C172.636 148.165 177.537 154.74 173.316 157.88C171.31 159.38 168.188 158.421 169.811 160.025C174.886 161.63 184.845 166.618 190.147 162.798C194.246 159.851 189.45 157.845 180.938 152.473C159.974 139.27 134.596 131.526 109.725 132.433C104.824 128.561 99.6958 120.939 93.1378 119.735C80.9114 117.485 94.2541 130.915 87.4694 132.031C81.5567 133.008 62.9641 126.886 56.0398 118.462C35.0752 92.9798 66.4175 59.8582 85.2892 43.6375C83.4927 43.4457 81.6613 43.1492 79.8474 43.5155C78.7835 42.6259 80.2311 42.1027 80.0916 40.376C66.278 45.6433 54.6445 54.5734 44.4761 64.9337L44.4587 64.9163Z" fill="#426793"/>
<path d="M264.518 167.839C252.989 171.013 243.867 180.955 233.995 187.408C219.414 196.949 204.432 206.106 188.177 212.646C186.747 213.937 183.694 239.105 183.188 242.89C191.526 240.239 200.578 236.733 208.269 232.495C209.804 231.658 224.42 221.925 228.257 219.344C232.949 216.187 232.321 217.216 232.513 217.076C232.583 217.042 232.164 216.309 232.6 216.03C257.332 199.443 252.117 197.908 285.186 188.123C298.163 184.286 330.15 179.211 333.028 171.85C310.843 175.112 303.099 172.443 283.913 168.223C281.96 167.787 278.018 168.327 277.721 168.223" fill="#7AADEA"/>
<path d="M56.8252 215.576C80.0572 234.413 109.341 247.669 139.602 249.169C142.777 249.326 148.811 248.14 148.724 249.709C149.3 243.901 164.718 224.96 168.904 219.239C133.986 223.913 95.3708 219.466 66.0168 198.047C65.0576 198.309 64.7611 205.007 56.8252 215.576Z" fill="#7AADEA"/>
<path d="M47.2489 176.926C44.6676 181.6 41.7374 184.967 37.2201 187.897C31.4121 196.182 44.1618 197.228 20.7728 217.495C14.1974 223.199 6.33125 227.594 0 233.629C18.1042 238.425 34.4643 236.437 48.9757 224.123C50.3535 220.356 54.5744 216.675 56.8766 212.734C60.5045 206.489 64.6032 193.827 64.3765 186.711C64.1323 178.722 58.4289 162.275 51.1035 167.525C48.6791 169.252 48.9233 176.002 48.7315 176.438C48.4699 177.013 47.3536 176.804 47.2664 176.943L47.2489 176.926Z" fill="#5F83B7"/>
<path d="M80.0743 40.3592C80.2139 42.0859 78.7662 42.6091 79.8302 43.4987C81.6441 43.1324 83.4754 43.4289 85.2719 43.6208C96.9751 44.9114 128.457 47.4405 138.224 44.0219C143.997 42.0161 132.172 41.4929 121.149 37.6034C112.899 34.6907 104.44 27.2257 95.3705 31.6035C96.417 19.7258 73.5338 8.70271 63.3828 0.854004C62.7201 1.55167 62.755 1.84818 62.9294 2.7377C63.3829 5.05743 79.0453 26.6676 80.0743 40.3592Z" fill="#426793"/>
<path d="M37.2214 187.898C41.7387 184.968 44.6689 181.601 47.2502 176.927C22.9891 145.672 12.9777 105.294 38.3551 71.6147C10.4313 105.539 8.44295 153.486 37.2214 187.898Z" fill="#7AADEA"/>
<path d="M264.517 167.839C269.034 166.601 271.651 168.118 271.633 165.606C275.453 169.356 275.47 165.502 275.732 165.432C276.028 165.362 276.29 166.374 277.825 167.141C280.145 167.874 279.36 165.38 279.831 165.257C280.127 165.188 282.726 170.246 283.511 165.676C288.046 171.554 286.145 164.176 290.208 168.676C291.15 164.281 292.284 173.176 294.638 167.42C296.243 172.967 297.08 168.519 297.394 168.502C297.813 168.502 298.772 172.129 300.324 170.595C300.691 170.228 299.958 165.833 301.999 171.345C305.749 167.507 302.696 172.775 306.394 171.379C306.115 165.013 307.65 175.583 310.039 170.002C313.126 174.885 314.696 169.862 315.219 170.159C315.812 170.49 315.76 174.397 317.818 170.246C318.952 173.821 321.969 170.978 322.58 170.996C322.754 170.996 324.847 172.06 325.841 171.99C337.335 171.257 333.393 171.118 328.771 167.891C327.184 170.961 325.737 164.839 324.167 168.153C320.434 163.914 321.725 169.339 318.551 165.484C316.632 168.903 315.952 162.816 314.033 166.234C310.946 162.345 311.801 167.682 309.01 163.984C306.621 166.478 306.9 163.531 305.836 163.478C304.667 163.444 304.912 166.478 302.156 163.06C300.673 165.781 299.854 163.008 299.557 162.973C298.947 162.903 298.702 163.932 297.638 163.81C297.377 163.775 297.063 162.554 296.383 162.467C296.173 162.449 294.691 163.391 292.371 163.147C292.005 163.112 290.976 161.926 290.61 161.891C290.296 161.856 287.679 163.252 284.592 161.351C278.47 162.728 268.476 163.897 264.517 167.821V167.839Z" fill="#426793"/>
<path d="M208.27 232.479C226.462 254.525 252.397 269.245 271.618 290.228C271.583 289.652 271.321 289.042 271.321 288.466C263.263 260.019 246.624 241.199 228.241 219.328C224.404 221.909 209.788 231.641 208.253 232.479H208.27Z" fill="#5F83B7"/>
<path d="M228.258 219.327C246.624 241.216 263.263 260.018 271.339 288.466C271.67 264.937 248.159 233.734 232.531 217.06C232.34 217.199 232.95 216.17 228.276 219.327H228.258Z" fill="#426793"/>
<path d="M126.381 165.712C130.079 165.869 133.497 165.851 137.177 165.45C145.323 152.91 122.265 149.003 125.335 162.537C125.492 163.2 128.108 164.404 126.381 165.712Z" fill="#426793"/>
<path d="M165.363 158.142C166.811 158.595 168.223 159.467 169.793 159.973C168.188 158.368 171.293 159.328 173.299 157.828C177.52 154.688 172.619 148.113 166.933 150.642C162.136 152.787 167.404 158.333 165.345 158.124L165.363 158.142Z" fill="#426793"/>
<path d="M74.7555 153.224C77.9822 154.811 80.8077 156.102 84.2088 157.306C82.7611 145.358 76.6741 153.12 76.0811 153.503C75.959 153.591 74.6508 152.021 74.7381 153.207L74.7555 153.224Z" fill="#426793"/>
<path d="M44.4595 64.9174C42.2793 67.1325 40.3259 69.2255 38.355 71.615C12.9777 105.295 22.9891 145.689 47.2501 176.927C47.3199 176.788 48.4536 176.997 48.7152 176.421C48.9071 175.985 48.6804 169.236 51.0873 167.509C58.4301 162.259 64.1161 178.706 64.3602 186.695C64.587 193.811 60.4882 206.473 56.8604 212.717C54.5581 216.659 50.3373 220.322 48.9594 224.107C51.907 221.613 54.5058 218.647 56.8081 215.56C64.7265 204.991 65.0404 198.276 65.9997 198.032C95.3537 219.432 133.969 223.897 168.887 219.223C164.701 224.961 149.283 243.885 148.707 249.694C153.695 278.786 149.893 299.419 138.295 326C151.341 325.599 166.602 306.414 172.305 295.007C181.497 276.658 180.66 261.885 183.172 242.874C183.677 239.072 186.73 213.903 188.16 212.63C204.415 206.09 219.397 196.933 233.979 187.392C243.85 180.939 252.972 170.997 264.501 167.823C268.46 163.916 278.454 162.73 284.576 161.352C295.931 158.788 307.477 157.462 318.866 155.09C335.383 151.637 346.302 150.695 340.232 142.48C334.564 134.806 320.157 139.201 312.081 139.201C296.367 139.219 243.571 136.097 233.106 139.027C209.752 145.585 222.659 178.916 180.922 152.422C189.45 157.794 194.247 159.782 190.131 162.747C184.828 166.567 174.869 161.579 169.794 159.974C168.207 159.468 166.811 158.579 165.364 158.143C153.538 154.497 156.556 160.515 148.463 163.55C144.643 164.98 141.12 165.015 137.178 165.451C133.498 165.852 130.08 165.869 126.382 165.712C114.871 165.207 95.1444 161.195 84.2086 157.305C80.8075 156.102 77.982 154.794 74.7553 153.224C39.6108 136.044 26.4948 100.516 48.7327 67.2895C52.8837 67.9348 53.1454 64.6035 51.2442 63.7663C51.157 63.7314 50.128 65.1965 49.535 64.307C49.0815 63.6442 59.7557 54.1385 61.0638 53.092C61.0638 49.8828 47.5292 63.9581 44.477 64.9L44.4595 64.9174Z" fill="#5F83B7"/>
<path d="M240.065 149.754C239.437 149.876 233.158 159.243 234.728 160.969C236.856 157.516 237.676 153.068 240.955 150.382L240.083 149.754H240.065Z" fill="#426793"/>
<path d="M242.49 151.916C241.269 152.038 239.298 157.41 239.193 158.404C238.339 166.236 240.745 158.98 242.49 151.916Z" fill="#426793"/>
<path d="M263.332 160.811C265.338 158.771 265.024 157.602 262.582 156.294L263.332 160.811Z" fill="#DBE7E3"/>
<path d="M263.332 160.811L262.582 156.294C254.611 152.038 257.402 166.846 263.332 160.811Z" fill="#0C0B0A"/>
<path d="M259.39 157.342C258.919 157.429 258.448 159.191 259.233 159.435C261.082 160.01 260.332 157.185 259.39 157.342Z" fill="white"/>
</svg>
