<svg width="342" height="326" viewBox="0 0 342 326" fill="none" xmlns="http://www.w3.org/2000/svg">
<path d="M297.471 64.0457C294.402 63.1038 280.867 49.0285 280.884 52.2378C282.192 53.3017 292.867 62.7899 292.413 63.4527C291.82 64.3422 290.774 62.8771 290.704 62.912C288.803 63.7318 289.064 67.0805 293.216 66.4352C315.453 99.6614 302.337 135.19 267.193 152.37C267.28 151.184 265.972 152.736 265.85 152.666C265.274 152.265 259.187 144.521 257.722 156.469C246.786 160.358 227.06 164.37 215.549 164.875C213.822 163.567 216.456 162.364 216.595 161.701C219.665 148.166 196.607 152.073 204.752 164.614C200.793 164.178 197.287 164.16 193.468 162.713C185.375 159.66 188.392 153.661 176.567 157.306C174.509 157.515 179.776 151.951 174.98 149.823C169.294 147.294 164.393 153.87 168.614 157.009C170.619 158.509 173.741 157.55 172.119 159.155C167.044 160.759 157.085 165.748 151.783 161.928C147.684 158.98 152.48 156.974 160.992 151.602C181.956 138.399 207.334 130.655 232.205 131.562C237.106 127.69 242.234 120.068 248.792 118.865C261.019 116.615 247.676 130.045 254.461 131.161C260.373 132.138 278.966 126.016 285.89 117.591C306.855 92.1092 275.512 58.9877 256.641 42.767C258.437 42.5751 260.269 42.2786 262.082 42.6449C263.146 41.7554 261.699 41.2321 261.838 39.5054C275.652 44.7727 287.285 53.7028 297.454 64.0631L297.471 64.0457Z" fill="#325451"/>
<path d="M77.4115 166.986C88.9403 170.16 98.0622 180.102 107.934 186.555C122.515 196.096 137.497 205.253 153.753 211.793C155.183 213.084 158.235 238.252 158.741 242.037C150.404 239.386 141.352 235.88 133.66 231.642C132.125 230.805 117.509 221.072 113.672 218.491C108.98 215.334 109.608 216.363 109.417 216.223C109.347 216.189 109.765 215.456 109.329 215.177C84.5973 198.59 89.8123 197.055 56.7433 187.27C43.7669 183.433 11.7792 178.358 8.90137 170.997C31.0869 174.259 38.8309 171.59 58.0165 167.37C59.9699 166.933 63.9118 167.474 64.2083 167.37" fill="#6FAAA5"/>
<path d="M285.087 214.723C261.855 233.56 232.571 246.816 202.31 248.316C199.136 248.473 193.101 247.287 193.188 248.856C192.612 243.048 177.194 224.107 173.008 218.386C207.926 223.06 246.542 218.613 275.896 197.194C276.855 197.456 277.151 204.154 285.087 214.723Z" fill="#6FAAA5"/>
<path d="M294.681 176.073C297.262 180.747 300.192 184.114 304.71 187.044C310.518 195.329 297.768 196.375 321.157 216.642C327.733 222.345 335.599 226.741 341.93 232.776C323.826 237.572 307.466 235.584 292.954 223.27C291.576 219.503 287.356 215.822 285.053 211.881C281.425 205.636 277.327 192.974 277.553 185.858C277.798 177.869 283.501 161.422 290.826 166.672C293.251 168.399 293.007 175.149 293.198 175.585C293.46 176.16 294.576 175.951 294.664 176.09L294.681 176.073Z" fill="#507F7D"/>
<path d="M261.854 39.5052C261.715 41.2319 263.162 41.7552 262.098 42.6447C260.284 42.2784 258.453 42.5749 256.657 42.7668C244.953 44.0575 213.471 46.5865 203.704 43.1679C197.931 41.1621 209.756 40.6389 220.779 36.7494C229.029 33.8367 237.488 26.3717 246.558 30.7495C245.511 18.8718 268.395 7.84871 278.546 0C279.208 0.697663 279.173 0.994173 278.999 1.88369C278.546 4.20342 262.883 25.8135 261.854 39.5052Z" fill="#325451"/>
<path d="M304.708 187.044C300.191 184.114 297.261 180.747 294.679 176.073C318.94 144.818 328.952 104.44 303.574 70.7607C331.498 104.685 333.486 152.632 304.708 187.044Z" fill="#6FAAA5"/>
<path d="M77.4105 166.986C72.8931 165.747 70.2769 167.265 70.2943 164.753C66.4746 168.503 66.4572 164.649 66.1955 164.579C65.899 164.509 65.6375 165.521 64.1026 166.288C61.7829 167.021 62.5678 164.527 62.0968 164.404C61.8003 164.335 59.2015 169.393 58.4167 164.823C53.8819 170.701 55.783 163.323 51.7192 167.823C50.7773 163.428 49.6436 172.323 47.289 166.567C45.6844 172.114 44.8472 167.666 44.5333 167.649C44.1147 167.649 43.1554 171.276 41.6031 169.742C41.2369 169.375 41.9694 164.98 39.9287 170.492C36.1788 166.654 39.2311 171.922 35.5335 170.526C35.8125 164.16 34.2777 174.73 31.8882 169.149C28.8011 174.032 27.2313 169.009 26.7081 169.306C26.1151 169.637 26.1674 173.544 24.1093 169.393C22.9756 172.968 19.9582 170.125 19.3478 170.143C19.1734 170.143 17.0804 171.207 16.0862 171.137C4.59232 170.404 8.53405 170.265 13.156 167.038C14.7432 170.108 16.1909 163.986 17.7606 167.3C21.4931 163.061 20.2024 168.486 23.3768 164.631C25.2953 168.05 25.9755 161.963 27.8941 165.381C30.9812 161.492 30.1266 166.829 32.9173 163.131C35.3067 165.625 35.0277 162.678 36.0916 162.625C37.2602 162.591 37.016 165.625 39.7717 162.207C41.2543 164.928 42.074 162.154 42.3705 162.12C42.9809 162.05 43.2251 163.079 44.2891 162.957C44.5507 162.922 44.8646 161.701 45.5449 161.614C45.7542 161.596 47.2367 162.538 49.5564 162.294C49.9227 162.259 50.9517 161.073 51.318 161.038C51.6319 161.003 54.2482 162.399 57.3353 160.498C63.4573 161.875 73.4512 163.044 77.4105 166.968V166.986Z" fill="#325451"/>
<path d="M133.645 231.625C115.454 253.671 89.5184 268.391 70.2979 289.374C70.3327 288.798 70.5944 288.188 70.5944 287.612C78.6523 259.165 95.2915 240.345 113.675 218.474C117.512 221.055 132.128 230.787 133.663 231.625H133.645Z" fill="#507F7D"/>
<path d="M113.674 218.474C95.3083 240.363 78.6692 259.165 70.5938 287.613C70.2624 264.084 93.7735 232.881 109.401 216.207C109.593 216.346 108.982 215.317 113.657 218.474H113.674Z" fill="#325451"/>
<path d="M215.547 164.858C211.849 165.015 208.431 164.997 204.75 164.596C196.605 152.056 219.663 148.149 216.593 161.683C216.436 162.346 213.82 163.55 215.547 164.858Z" fill="#325451"/>
<path d="M176.566 157.289C175.119 157.742 173.706 158.614 172.136 159.12C173.741 157.515 170.636 158.475 168.631 156.975C164.41 153.835 169.311 147.26 174.997 149.789C179.793 151.934 174.526 157.48 176.584 157.271L176.566 157.289Z" fill="#325451"/>
<path d="M267.174 152.37C263.948 153.957 261.122 155.248 257.721 156.452C259.169 144.504 265.256 152.266 265.849 152.649C265.971 152.737 267.279 151.167 267.192 152.353L267.174 152.37Z" fill="#325451"/>
<path d="M297.47 64.0458C299.651 66.2609 301.604 68.3539 303.575 70.7434C328.952 104.423 318.941 144.818 294.68 176.056C294.61 175.916 293.476 176.125 293.215 175.55C293.023 175.114 293.25 168.364 290.843 166.637C283.5 161.387 277.814 177.835 277.57 185.823C277.343 192.939 281.442 205.602 285.07 211.846C287.372 215.788 291.593 219.45 292.971 223.235C290.023 220.741 287.424 217.776 285.122 214.689C277.204 204.119 276.89 197.404 275.93 197.16C246.576 218.561 207.961 223.026 173.043 218.352C177.229 224.09 192.647 243.014 193.223 248.822C188.235 277.915 192.037 298.548 203.635 325.129C190.589 324.728 175.328 305.542 169.625 294.135C160.433 275.787 161.27 261.014 158.758 242.002C158.253 238.2 155.2 213.032 153.77 211.759C137.515 205.218 122.533 196.061 107.951 186.521C98.0796 180.067 88.9577 170.126 77.4289 166.951C73.4697 163.044 63.4758 161.858 57.3538 160.48C45.9994 157.916 34.4531 156.591 23.0639 154.219C6.54679 150.765 -4.37159 149.824 1.69804 141.609C7.36652 133.934 21.7732 138.33 29.8486 138.33C45.5633 138.347 98.3587 135.225 108.824 138.155C132.178 144.713 119.271 178.044 161.008 151.55C152.48 156.922 147.683 158.911 151.799 161.876C157.102 165.695 167.061 160.707 172.136 159.102C173.723 158.597 175.119 157.707 176.566 157.271C188.392 153.626 185.374 159.643 193.467 162.678C197.287 164.108 200.81 164.143 204.752 164.579C208.432 164.98 211.85 164.998 215.548 164.841C227.059 164.335 246.786 160.323 257.721 156.434C261.122 155.23 263.948 153.922 267.175 152.353C302.319 135.173 315.435 99.6441 293.197 66.4179C289.046 67.0632 288.785 63.7319 290.686 62.8947C290.773 62.8598 291.802 64.3249 292.395 63.4354C292.849 62.7726 282.174 53.2669 280.866 52.2204C280.866 49.0112 294.401 63.0865 297.453 64.0284L297.47 64.0458Z" fill="#507F7D"/>
<path d="M101.865 148.9C102.493 149.022 108.772 158.389 107.202 160.115C105.074 156.662 104.255 152.214 100.976 149.528L101.848 148.9H101.865Z" fill="#426793"/>
<path d="M99.4399 151.063C100.661 151.185 102.632 156.557 102.736 157.551C103.591 165.383 101.184 158.127 99.4399 151.063Z" fill="#426793"/>
<path d="M78.5969 159.958C76.5912 157.918 76.9051 156.749 79.3469 155.441L78.5969 159.958Z" fill="#DBE7E3"/>
<path d="M78.5981 159.958L79.3481 155.441C87.3189 151.185 84.5282 165.993 78.5981 159.958Z" fill="#0C0B0A"/>
<path d="M82.5234 156.487C82.9943 156.574 83.4653 158.336 82.6804 158.58C80.8316 159.156 81.5816 156.33 82.5234 156.487Z" fill="white"/>
</svg>
