<svg width="352" height="334" viewBox="0 0 352 334" fill="none" xmlns="http://www.w3.org/2000/svg">
<path d="M13.0474 213.223L30.6109 213.485L85.9527 205.549L84.7841 193.34L12.6113 212.438L13.0474 213.223Z" fill="white"/>
<path d="M279.972 60.0515C276.798 59.6154 261.118 47.9819 261.659 51.1388C263.124 51.9586 275.228 59.5631 274.897 60.2956C274.443 61.2724 273.187 59.9991 273.118 60.034C271.373 61.1677 272.176 64.4118 276.17 63.0863C303.588 92.1788 296.542 129.382 264.728 152.143C264.624 150.957 263.595 152.719 263.455 152.649C262.827 152.352 255.537 145.724 256.077 157.742C245.944 163.393 227.142 170.614 215.875 173.003C213.956 172.009 216.346 170.369 216.381 169.689C217.165 155.841 195.084 163.497 205.183 174.521C201.206 174.747 197.736 175.305 193.742 174.521C185.265 172.864 187.236 166.428 176.178 171.974C174.19 172.515 178.463 166.166 173.387 164.858C167.37 163.306 163.62 170.596 168.294 173.003C170.527 174.154 173.44 172.689 172.114 174.538C167.37 176.962 158.388 183.538 152.527 180.643C147.993 178.41 152.388 175.637 159.905 168.939C178.393 152.457 202.148 140.614 226.828 137.387C231.014 132.748 234.816 124.393 241.078 122.126C252.763 117.87 241.828 133.341 248.717 133.324C254.717 133.306 272.036 124.202 277.478 114.748C293.943 86.1441 257.56 58.6736 236.264 45.8017C238.008 45.3133 239.752 44.7203 241.601 44.7901C242.508 43.7436 240.99 43.4645 240.833 41.7378C255.327 44.6505 268.269 51.54 280.024 60.0515H279.972Z" fill="#2D886D"/>
<path d="M79.9706 197.962C91.8657 199.183 102.505 207.468 113.301 212.212C129.26 219.206 145.551 225.764 162.661 229.514C164.283 230.543 171.469 254.857 172.585 258.52C163.934 257.281 154.411 255.328 146.126 252.415C144.469 251.839 128.458 244.653 124.237 242.752C119.092 240.415 119.877 241.322 119.65 241.218C119.58 241.183 119.859 240.415 119.388 240.206C92.2494 227.927 97.1505 225.555 62.8954 221.369C49.4655 219.729 17.0767 220.009 13.0303 213.224C35.46 212.77 42.6459 208.863 60.8722 201.52C62.7384 200.77 66.6977 200.648 66.9767 200.509" fill="#ACDDD0"/>
<path d="M292.687 210.678C272.891 233.09 246.206 251.02 216.608 257.491C213.503 258.171 207.346 258.014 207.695 259.532C206.16 253.898 187.829 237.782 182.754 232.811C217.951 231.642 255.31 220.864 280.723 194.893C281.717 194.998 283.112 201.556 292.687 210.66V210.678Z" fill="#ACDDD0"/>
<path d="M295.738 170.98C299.052 175.166 302.505 178.009 307.441 180.137C314.54 187.357 302.139 190.479 328.563 206.595C335.993 211.13 344.487 214.165 351.725 219.066C334.668 226.793 318.185 227.543 301.86 217.793C299.872 214.305 295.11 211.374 292.198 207.869C287.576 202.322 281.454 190.497 280.494 183.45C279.413 175.532 282.308 158.369 290.419 162.329C293.087 163.637 293.977 170.334 294.238 170.718C294.604 171.241 295.668 170.84 295.773 170.98H295.738Z" fill="#399D78"/>
<path d="M240.782 41.7377C240.939 43.4644 242.439 43.7435 241.549 44.79C239.701 44.7202 237.939 45.3132 236.212 45.8016C224.893 49.0108 194.266 56.7026 184.045 54.9584C178.028 53.9294 189.591 51.4527 199.812 45.8016C207.469 41.5633 214.585 32.8076 224.23 35.6157C221.23 24.0694 241.985 9.41845 250.689 0C251.456 0.575572 251.474 0.872079 251.456 1.77904C251.404 4.13365 239.526 28.0286 240.765 41.7203L240.782 41.7377Z" fill="#0F5D45"/>
<path d="M307.443 180.154C302.507 178.009 299.053 175.183 295.739 170.997C314.489 136.166 317.681 94.6727 287.088 65.6499C320.245 94.4808 330.116 141.434 307.443 180.154Z" fill="#ACDDD0"/>
<path d="M79.9711 197.963C75.2968 197.492 72.9771 199.428 72.5934 196.951C69.4539 201.277 68.7911 197.475 68.5295 197.457C68.233 197.44 68.1283 198.486 66.7505 199.498C64.5877 200.597 64.954 198.015 64.4656 197.963C64.1691 197.945 62.425 203.37 60.9076 198.975C57.4018 205.533 58.0646 197.928 54.8031 203.038C53.1461 198.852 53.4949 207.817 50.216 202.533C49.5532 208.253 48.0009 204.015 47.6695 204.067C47.2684 204.12 46.9195 207.87 45.123 206.614C44.7044 206.317 44.7044 201.852 43.5882 207.626C39.2627 204.469 43.1347 209.143 39.2627 208.393C38.4953 202.079 38.722 212.753 35.443 207.626C33.2105 212.963 30.821 208.271 30.3501 208.637C29.8094 209.073 30.5071 212.91 27.8037 209.143C27.2804 212.858 23.827 210.556 23.2166 210.678C23.0421 210.713 21.141 212.108 20.1643 212.213C8.70526 213.381 12.5772 212.596 16.6062 208.655C18.6818 211.428 19.0829 205.149 21.1933 208.149C24.1584 203.352 23.8096 208.916 26.2862 204.591C28.7455 207.643 28.4141 201.538 30.8734 204.591C33.2803 200.248 33.3152 205.637 35.4605 201.538C38.2337 203.614 37.4663 200.736 38.5127 200.527C39.6639 200.3 39.9255 203.335 42.0708 199.515C43.9893 201.94 44.3382 199.079 44.6173 199.009C45.2103 198.835 45.6114 199.829 46.6579 199.515C46.9195 199.445 47.0067 198.172 47.6695 197.98C47.8614 197.928 49.4834 198.608 51.7334 197.98C52.0822 197.876 52.9019 196.55 53.2682 196.445C53.5822 196.358 56.3902 197.3 59.1285 194.911C65.39 195.259 75.4538 194.754 79.9886 197.963H79.9711Z" fill="#094935"/>
<path d="M146.126 252.416C131.824 277.165 108.679 295.967 93.2089 319.845C93.1391 319.269 93.3135 318.624 93.2089 318.066C96.453 288.677 109.761 267.363 124.255 242.753C128.476 244.672 144.487 251.84 146.144 252.416H146.126Z" fill="#399D78"/>
<path d="M124.237 242.735C109.743 267.345 96.4349 288.659 93.1908 318.048C88.9699 294.885 107.004 260.229 119.649 241.2C119.876 241.305 119.091 240.398 124.237 242.735Z" fill="#0F5D45"/>
<path d="M215.84 173.02C212.212 173.788 208.846 174.328 205.148 174.555C195.05 163.532 217.131 155.875 216.346 169.724C216.311 170.404 213.922 172.026 215.84 173.038V173.02Z" fill="#2D886D"/>
<path d="M176.16 172.01C174.799 172.69 173.561 173.789 172.096 174.556C173.422 172.707 170.509 174.172 168.276 173.021C163.602 170.614 167.352 163.324 173.369 164.876C178.445 166.184 174.172 172.55 176.16 171.992V172.01Z" fill="#399D78"/>
<path d="M264.693 152.161C261.763 154.254 259.199 155.998 256.042 157.759C255.502 145.742 262.792 152.37 263.42 152.667C263.56 152.719 264.589 150.975 264.693 152.161Z" fill="#2D886D"/>
<path d="M279.971 60.052C282.483 61.866 284.75 63.6101 287.088 65.6508C317.68 94.6736 314.488 136.167 295.739 170.998C295.634 170.876 294.57 171.26 294.204 170.736C293.942 170.353 293.053 163.638 290.384 162.347C282.274 158.388 279.378 175.533 280.46 183.469C281.419 190.533 287.559 202.34 292.163 207.887C295.076 211.393 299.855 214.323 301.826 217.811C298.512 215.84 295.46 213.346 292.669 210.695C283.111 201.59 281.698 195.015 280.704 194.928C255.292 220.898 217.95 231.677 182.735 232.846C187.811 237.799 206.142 253.915 207.677 259.566C207.572 289.095 214.74 308.804 230.577 333.1C217.636 334.862 199.427 318.466 191.91 308.159C179.805 291.589 178.201 276.868 172.567 258.537C171.451 254.874 164.265 230.561 162.643 229.532C145.515 225.782 129.242 219.224 113.283 212.23C102.487 207.486 91.8478 199.201 79.9527 197.98C75.4005 194.771 65.3542 195.277 59.0927 194.928C47.4592 194.282 35.8607 194.875 24.2272 194.422C7.36131 193.759 -3.55705 194.614 1.06494 185.509C5.39043 177.015 20.3203 178.951 28.2911 177.626C43.7965 175.044 95.3535 163.236 106.15 164.388C130.271 166.986 123.068 201.992 159.835 168.975C152.317 175.672 147.922 178.445 152.457 180.678C158.317 183.573 167.3 176.998 172.044 174.573C173.526 173.823 174.765 172.707 176.108 172.027C187.165 166.481 185.177 172.899 193.671 174.573C197.683 175.358 201.154 174.8 205.113 174.573C208.81 174.364 212.176 173.823 215.804 173.039C227.071 170.649 245.873 163.411 256.007 157.777C259.164 156.016 261.728 154.271 264.658 152.178C296.471 129.417 303.535 92.2143 276.099 63.1218C272.105 64.4473 271.303 61.1857 273.047 60.0695C273.117 60.0172 274.39 61.3078 274.826 60.3311C275.158 59.5986 263.071 51.994 261.588 51.1743C261.047 47.9999 276.727 59.6509 279.902 60.0869L279.971 60.052Z" fill="#399D78"/>
<path d="M101.092 176.073C101.737 176.073 109.481 184.271 108.208 186.259C105.54 183.207 103.987 178.969 100.325 176.841L101.092 176.073Z" fill="#227B5C"/>
<path d="M99.0508 178.62C100.272 178.533 103.115 183.521 103.376 184.481C105.522 192.068 101.946 185.3 99.0508 178.62Z" fill="#2D886D"/>
<path d="M79.9714 190.829C77.6691 189.154 77.7738 187.934 79.9714 186.242V190.829Z" fill="#DBE7E3"/>
<path d="M79.9707 190.83V186.243C87.1217 180.732 86.8252 195.801 79.9707 190.83Z" fill="#0C0B0A"/>
<path d="M83.2833 186.765C83.7542 186.765 84.5216 188.44 83.7891 188.806C82.0624 189.678 82.324 186.765 83.2833 186.765Z" fill="white"/>
</svg>
