<svg width="349" height="295" viewBox="0 0 349 295" fill="none" xmlns="http://www.w3.org/2000/svg">
<g clip-path="url(#clip0_114_676)">
<path d="M340.82 172.803C340.243 173.407 340.682 175.666 340.123 177.725C339.968 178.302 339.95 178.147 339.79 178.728C339.235 180.743 339.63 181.879 339.657 183.907C339.675 185.327 339.697 186.903 338.982 188.665C338.357 190.213 337.926 190.023 337.194 191.882C336.626 193.333 336.59 194.203 335.725 194.78C335.357 195.028 335.299 194.909 334.109 195.384C332.925 195.858 332.987 195.974 332.126 196.293C331.007 196.71 329.987 196.861 329.317 196.959C328.864 197.026 327.848 197.154 327.848 197.154C327.848 197.154 327.754 197.061 327.581 196.888C327.355 197.225 326.964 197.416 326.565 197.381C326.121 197.341 325.722 197.034 325.624 196.657C325.464 196.04 326.183 195.455 326.463 195.224C327.24 194.585 328.149 194.46 328.136 194.425C328.127 194.394 327.484 194.545 326.627 194.616C326.086 194.66 325.939 194.634 325.828 194.531C325.54 194.27 325.655 193.653 325.851 193.28C326.17 192.668 326.845 192.472 327.013 192.423C327.173 192.379 327.311 192.357 327.408 192.348C327.377 192.286 327.311 192.139 327.333 191.953C327.377 191.616 327.675 191.452 327.706 191.434C327.608 191.305 327.515 191.181 327.417 191.052C327.475 189.685 327.79 188.691 328.061 188.043C328.473 187.058 328.797 186.841 329.272 185.651C329.534 184.999 329.676 184.382 329.96 183.175C330.519 180.765 330.359 180.61 330.763 179.66C331.185 178.666 331.722 177.969 332.237 177.308C333.244 176.008 333.67 175.906 334.172 175.124C334.633 174.41 335.081 173.247 334.873 171.334C339.182 172.315 340.726 172.555 341.028 172.488C341.059 172.479 339.888 172.462 340.402 172.457C340.491 172.457 340.86 172.763 340.82 172.803Z" fill="#F9AE80"/>
<path d="M333.67 136.692C331.304 140.788 334.074 151.479 334.069 162.827C334.069 167.118 335.192 170.38 334.89 172.848C340.012 173.376 335.383 175.137 340.509 175.661C341.072 167.154 347.379 159.485 347.649 155.247C348.279 145.297 348.55 140.287 346.384 138.72C342.883 136.181 336.634 131.562 333.674 136.692H333.67Z" fill="#F9AE80"/>
<path d="M268.624 279.509C270.279 279.496 271.313 278.914 271.748 279.465C272.152 279.975 271.788 280.947 271.651 281.315C271.491 281.733 271.131 282.474 270.253 283.166C269.716 283.588 267.901 284.848 263.609 285.07C261.532 285.176 258.59 285.389 254.676 284.719C252.04 284.267 251.099 284.027 251.045 283.508C251.006 283.086 252.483 282.136 253.73 281.324C255.621 280.099 255.417 278.906 256.713 278.617C257.174 278.515 257.125 278.466 257.725 278.502" fill="#744B1F"/>
<path d="M272.094 269.781C272.192 272.803 272.068 275.914 271.681 279.105C269.755 279.42 267.306 279.655 264.483 279.513C261.749 279.38 259.411 278.932 257.56 278.448C257.48 275.275 257.4 272.106 257.32 268.933C261.985 269.097 266.68 269.324 271.402 269.621C271.624 269.634 271.846 269.648 272.072 269.665C272.081 269.665 272.09 269.665 272.094 269.665C272.094 269.701 272.094 269.741 272.094 269.776V269.781Z" fill="#FAD5A9"/>
<path d="M305.942 271.8C306.252 271.897 306.248 276.397 305.977 282.508C304.3 282.757 301.952 282.921 299.187 282.544C296.36 282.158 294.101 281.341 292.535 280.636C292.468 277.365 292.402 274.09 292.335 270.819C296.596 271.116 300.852 271.409 305.112 271.706C305.183 271.702 305.276 271.693 305.392 271.698C305.392 271.698 305.671 271.711 305.942 271.795V271.8Z" fill="#FAD5A9"/>
<path d="M272.427 207.819C271.313 204.948 259.916 206.838 254.649 207.846C255.501 228.26 256.357 248.674 257.209 269.089C262.184 269.302 267.164 269.515 272.138 269.728C272.263 249.695 272.387 229.662 272.511 209.634C272.511 209.141 272.511 208.649 272.511 208.156C272.498 208.036 272.471 207.925 272.431 207.823L272.427 207.819Z" fill="#F9AE80"/>
<path d="M306.137 210.388C305.316 231.069 305.21 251.496 305.76 271.671C301.393 271.396 297.031 271.125 292.664 270.85C291.488 250.178 290.307 229.511 289.131 208.839C294.83 208.662 300.528 208.489 306.226 208.311C306.195 209.003 306.168 209.696 306.142 210.388H306.137Z" fill="#F9AE80"/>
<path d="M307.935 190.422C307.944 198.757 307.615 205.56 307.331 210.051C307.127 210.317 306.825 210.619 306.399 210.801C305.885 211.023 305.41 210.974 305.246 210.961C304.274 210.872 297.847 210.34 289.012 209.59C288.728 209.412 288.404 209.141 288.155 208.742C287.671 207.952 287.769 207.095 287.787 206.905C287.893 205.582 287.201 196.946 286.114 184.662C282.062 184.191 278.01 183.725 273.958 183.255C273.989 188.128 274.091 191.922 274.171 194.452C274.3 198.393 274.477 202.169 273.816 207.384C273.776 207.717 273.736 207.987 273.71 208.169C272.254 208.52 270.639 208.822 268.877 209.021C267.137 209.217 264.35 209.101 258.852 208.875C257.831 208.835 256.127 208.751 254.001 208.165C253.721 208.09 253.491 208.019 253.335 207.97C253.211 206.47 253.056 204.326 252.945 201.752C252.812 198.663 252.559 192.712 253.06 186.792C253.699 179.239 254.045 175.174 255.891 172.125C263.676 159.277 300.182 161.301 306.892 175.276C307.895 177.37 307.922 181.746 307.935 190.418V190.422Z" fill="#5D6775"/>
<path d="M309.825 156.751C312.794 165.343 313.353 174.077 313.353 174.077C313.5 176.358 313.762 179.851 314.272 184.196C310.038 185.292 305.236 186.299 299.938 187.031C294.727 187.75 289.917 188.083 285.603 188.181C282.665 180.974 279.727 173.771 276.789 166.564C276.78 167.877 276.754 169.204 276.714 170.549C276.505 177.281 275.902 183.654 275.027 189.636C271.326 190.009 266.587 190.151 261.155 189.481C256.015 188.851 251.666 187.666 248.276 186.49C248.924 182.198 249.434 177.423 249.656 172.231C249.913 166.244 249.74 160.763 249.35 155.904C289.966 156.654 305.738 156.578 307.069 156.059C307.225 155.997 308.489 155.425 309.293 155.984C309.639 156.223 309.772 156.583 309.83 156.751H309.825Z" fill="#A0995A"/>
<path d="M332.365 142.43C331.411 141.37 330.088 139.825 328.619 137.886C322.784 130.164 317.675 120.356 318.559 115.541C319.752 109.04 330.164 108.96 333.701 110.744C334.091 110.943 334.384 111.281 334.952 111.946C337.491 114.929 338.148 117.693 339.546 121.266C339.847 122.034 340.762 123.955 342.585 127.803C344.831 132.534 345.47 133.648 346.273 136.089C347.254 139.071 347.747 140.562 347.569 142.173C347.25 145.031 345.452 146.922 341.875 150.587C339.923 152.584 337.85 154.71 334.433 157.058" fill="#F9AE80"/>
<path d="M297.31 76.3409C299.156 76.1944 301.819 76.1323 304.97 76.6071C307.398 76.971 309.479 77.2861 311.764 78.4711C313.673 79.4652 315.239 81.1871 318.293 84.5998C319.944 86.4416 322.012 88.767 324.421 92.1931C326.299 94.8603 327.741 97.2878 328.819 99.2538C328.642 99.9417 328.327 100.94 327.754 102.05C326.543 104.406 324.994 105.693 322.557 107.712C319.438 110.304 316.881 111.565 316.162 111.911C315.146 112.399 314.267 112.745 313.633 112.976C313.1 112.599 312.568 112.221 312.035 111.844C311.977 112.878 311.902 114.538 311.902 116.575C311.898 122.295 312.461 123.374 312.435 128.3C312.412 132.507 312 132.445 312.102 136.559C312.186 139.91 312.483 140.868 312.381 143.26C312.244 146.469 311.511 149.167 310.761 151.204C290.076 151.066 269.391 150.933 248.706 150.796C248.453 150.663 248.125 150.441 247.881 150.068C247.042 148.794 247.934 146.899 248.391 145.763C249.31 143.495 249.376 140.966 249.98 138.592C250.517 136.488 251.018 132.751 252.03 125.273C252.305 123.25 252.682 120.369 253.104 116.872C252.758 116.171 252.225 115.097 251.537 113.806C249.261 109.523 247.907 107.686 246.603 105.294C245.564 103.394 244.233 100.55 243.199 96.6976C243.749 95.9209 244.787 94.4564 246.092 92.6103C250.983 85.6871 252.341 83.6634 254.861 81.0317C257.178 78.6086 258.421 77.3394 260.649 76.4341C263.231 75.3867 265.504 75.5154 267.714 75.6663C274.93 76.1678 280.153 76.8867 282.27 77.1131C285.727 77.4858 290.835 77.6367 297.315 76.3409H297.31Z" fill="#A0995A"/>
<path d="M298.184 42.5065C298.353 42.7151 298.207 43.0257 297.94 43.0302C289.819 43.1322 277.974 42.258 264.958 37.2609C254.768 33.3466 240.021 25.0389 241.113 21.3998C242.236 17.6586 260.262 18.2489 275.045 24.5995C286.366 29.4635 293.831 37.0922 298.184 42.5065Z" fill="#6E533D"/>
<path d="M291.425 51.0182C291.545 52.3007 291.687 53.5566 291.855 54.7771C292.024 55.3939 291.784 55.9487 291.407 56.0996C291.158 56.1972 290.897 56.0996 290.786 56.0508C291.087 57.1469 290.99 58.0212 290.897 58.5049C290.755 59.2372 290.59 60.0759 289.929 60.3866C289.17 60.7416 288.274 60.1558 288.158 60.0804C287.715 59.7786 287.138 59.1706 286.854 57.4753C286.423 54.9102 287.102 52.5004 287.719 50.9338C288.931 50.7075 290.142 50.4812 291.354 50.2593C291.376 50.5122 291.398 50.7696 291.42 51.0226L291.425 51.0182Z" fill="#744B1F"/>
<path d="M287.995 36.4393C288.172 38.4097 288.35 40.3846 288.523 42.355C289.37 41.1213 290.027 41.0503 290.289 41.0636C291.727 41.1302 292.597 44.1346 292.81 45.8521C292.939 46.8728 293.196 48.9542 291.9 50.4276C291.669 50.6894 291.012 51.435 289.899 51.6259C289.126 51.759 288.492 51.5593 288.177 51.435C288.079 59.3878 287.564 66.0713 287.045 71.0772C286.184 79.3717 285.612 84.6262 283.486 91.3274C281.715 96.9103 279.567 101.299 277.943 104.246C277.419 103.154 276.718 101.592 276.008 99.6707C273.949 94.1056 273.336 89.641 272.768 85.2697C272.262 81.3909 271.827 76.3228 271.916 70.3405C268.965 68.7695 266.475 68.1216 264.709 67.8242C263.293 67.589 262.401 67.5846 260.16 67.1319C257.755 66.6438 256.552 66.3997 255.225 65.7029C254.324 65.2281 252.021 64.0165 251.027 61.6467C250.357 60.049 250.605 58.6999 250.907 56.5919C251.395 53.1614 251.466 49.6776 251.928 46.2427C252.11 44.8935 252.753 40.1272 253.184 36.386C254.413 25.7572 253.703 25.3623 254.75 24.1951C258.971 19.482 272.928 23.1433 281.955 30.2884C284.786 32.5295 286.752 34.8195 287.995 36.4349V36.4393Z" fill="#F9AE80"/>
<path d="M287.045 71.0771C287.209 70.833 292.992 72.6348 296.711 73.9351C296.995 75.12 297.31 76.7088 297.497 78.5994C297.994 83.5388 297.319 87.3687 297.075 88.6335C296.05 93.8569 293.933 97.8333 292.295 100.345C291.261 99.4398 290.143 98.5123 288.927 97.5848C287.156 96.2356 285.439 95.0685 283.814 94.0611C283.322 95.2904 282.732 96.7282 282.048 98.3348C280.983 100.847 280.468 101.952 279.496 103.212C278.99 103.869 278.516 104.37 278.178 104.699C277.806 104.264 277.264 103.585 276.705 102.688C275.884 101.37 275.449 100.252 274.495 97.4649C273.23 93.7726 273.572 93.2445 272.942 92.7918C271.996 92.1128 269.95 92.1927 265.1 95.6099C264.687 95.7475 264.123 95.854 263.724 95.5788C262.916 95.0152 263.285 93.2312 263.511 92.2415C264.319 88.6779 264.723 86.8983 266.333 83.45C267.368 81.2399 268.641 77.9204 269.427 73.4114C270.328 72.9277 271.007 72.4617 271.908 71.9736C271.974 72.9366 272.076 74.4144 272.196 76.2206C272.382 78.981 272.804 82.0476 273.101 85.8332C273.368 89.2459 273.505 90.5729 273.9 92.4013C273.971 92.7208 274.277 94.1054 274.876 95.9738C275.507 97.9309 276.496 100.554 278.098 103.545C278.733 102.799 279.195 101.632 279.976 100.274C280.127 100.012 280.526 99.1824 281.161 97.6247C281.955 95.6853 282.567 93.9679 282.86 93.2179C285.669 83.4456 285.323 84.3154 285.976 80.2858C285.976 80.2858 286.229 78.1511 286.513 76.0698C286.77 74.2014 286.832 72.3996 287.01 71.4499" fill="#E2C393"/>
<path d="M268.824 43.082C268.717 41.8538 269.224 40.8064 269.957 40.7426C270.69 40.6788 271.37 41.6227 271.477 42.8509C271.584 44.0791 271.077 45.1265 270.345 45.1903C269.612 45.2541 268.931 44.3102 268.824 43.082Z" fill="black"/>
<path d="M267.372 57.7329C267.19 58.0347 266.134 59.7477 263.95 60.2448C261.408 60.8217 259.495 59.264 259.282 59.082" stroke="black" stroke-width="0.443791" stroke-miterlimit="10"/>
<path d="M253.495 42.772C253.388 41.5438 253.895 40.4964 254.627 40.4325C255.36 40.3687 256.041 41.3126 256.148 42.5408C256.255 43.769 255.747 44.8164 255.015 44.8802C254.282 44.9441 253.602 44.0001 253.495 42.772Z" fill="black"/>
<path d="M262.237 42.3421C261.057 42.2444 260.915 44.0551 257.081 50.357C256.859 50.7209 256.473 51.351 256.708 51.817C257.174 52.7268 259.792 52.5271 261.692 51.6706C262.508 51.3022 263.915 50.6632 264.616 49.2031C265.934 46.456 263.937 42.4885 262.233 42.3421H262.237Z" fill="#F49A78"/>
<path d="M268.533 48.9833C265.198 47.9304 263.348 44.3731 264.401 41.0378C265.453 37.7024 269.011 35.8522 272.346 36.9051C275.681 37.958 277.532 41.5153 276.479 44.8507C275.426 48.186 271.869 50.0362 268.533 48.9833Z" stroke="black" stroke-width="0.443791" stroke-miterlimit="10"/>
<path d="M249.338 43.4557C249.035 39.9714 251.255 36.9318 254.298 36.6667C257.34 36.4016 260.052 39.0113 260.356 42.4957C260.66 45.9801 258.439 49.0196 255.397 49.2847C252.355 49.5498 249.642 46.9401 249.338 43.4557Z" stroke="black" stroke-width="0.412726" stroke-miterlimit="10"/>
<path d="M292.886 39.1647C293.187 39.1425 293.294 38.7564 293.041 38.5922C290.676 37.0567 287.662 34.2608 283.739 32.2327C271.695 26.0018 266.316 24.3598 260.542 22.842C255.771 21.5905 251.795 21.9056 247.952 22.6823C244.037 23.4722 241.81 25.1009 240.012 26.419C238.703 27.3776 236.839 28.7711 237.163 29.9294C237.389 30.746 238.614 31.1542 239.347 31.2608C240.851 31.4826 241.508 30.6394 243.696 30.0137C245.972 29.3613 247.974 29.4989 248.023 29.7474C248.067 29.9782 246.35 30.1069 245.023 31.5315C244.947 31.6113 243.483 33.2134 243.944 34.1276C244.459 35.1484 247.117 34.7534 249.407 34.4117C252.718 33.9191 255.261 32.9161 256.623 32.3702C257.365 32.0729 258.261 31.7134 259.424 31.1187C260.995 30.3155 262.419 29.4057 262.459 29.4723C262.513 29.5522 260.058 30.6039 259.171 32.9117C258.998 33.3643 258.536 34.5537 259.064 35.4235C259.956 36.8969 263.089 36.4176 263.711 36.3244C269.076 35.5034 272.578 30.9146 273.07 31.3761C273.394 31.6824 271.65 33.4753 272.254 34.4916C272.649 35.1528 273.825 35.1262 275.351 35.0907C276.399 35.0685 277.49 34.9398 280.3 34.4427C282.044 34.1321 282.998 33.9412 283.211 34.3229C283.446 34.7489 282.474 35.3525 282.638 36.2179C282.776 36.9457 283.664 37.5803 284.511 37.7002C286.136 37.9221 287.134 36.1957 288.079 36.6528C288.599 36.9013 288.479 37.5182 288.914 38.1262C289.362 38.7564 290.374 39.3466 292.881 39.1736L292.886 39.1647Z" fill="#744B1F"/>
<path d="M290.632 27.7459C291.981 27.7192 295.061 17.2502 290.689 9.82112C289.704 8.14359 288.559 7.00305 287.858 6.37286C284.827 3.75006 281.383 3.21751 279.852 3.07993C278.915 2.3743 277.424 1.42015 275.401 0.78109C274.198 0.39943 270.816 -0.670108 267.324 0.616888C264.852 1.52666 263.485 3.19088 261.829 5.25895C260.201 7.29151 257.773 10.8995 256.291 16.3227C258 16.0342 259.42 15.9233 260.414 15.8789C275.405 15.1555 286.566 24.271 287.494 25.1408C288.346 25.9396 289.305 26.6142 290.166 27.4041C290.485 27.697 290.529 27.7503 290.627 27.7503L290.632 27.7459Z" fill="#D4A977"/>
<mask id="mask0_114_676" style="mask-type:luminance" maskUnits="userSpaceOnUse" x="256" y="0" width="37" height="28">
<path d="M290.632 27.7459C291.981 27.7192 295.061 17.2502 290.689 9.82112C289.704 8.14359 288.559 7.00305 287.858 6.37286C284.827 3.75006 281.383 3.21751 279.852 3.07993C278.915 2.3743 277.424 1.42015 275.401 0.78109C274.198 0.39943 270.816 -0.670108 267.324 0.616888C264.852 1.52666 263.485 3.19088 261.829 5.25895C260.201 7.29151 257.773 10.8995 256.291 16.3227C258 16.0342 259.42 15.9233 260.414 15.8789C275.405 15.1555 286.566 24.271 287.494 25.1408C288.346 25.9396 289.305 26.6142 290.166 27.4041C290.485 27.697 290.529 27.7503 290.627 27.7503L290.632 27.7459Z" fill="white"/>
</mask>
<g mask="url(#mask0_114_676)">
<path d="M295.064 17.4766C295.064 17.4766 290.666 16.1763 284.933 17.0594C279.199 17.9425 272.99 20.45 272.99 20.45L275.759 24.129L289.273 28.2296L295.832 25.3627L295.069 17.4766H295.064Z" fill="#F9DBBD"/>
<path d="M284.765 20.6547C284.765 20.6547 271.251 7.71379 259.983 5.36613C248.715 3.01847 249.181 14.4683 249.181 14.4683L257.773 20.1755L277.42 23.4329L284.765 20.6592V20.6547Z" fill="#F9DBBD"/>
</g>
<path d="M264.257 42.1824C264.186 42.107 263.201 41.0952 261.834 41.3481C260.902 41.5212 260.374 42.178 260.241 42.3555" stroke="black" stroke-width="0.443791" stroke-miterlimit="10"/>
<path d="M328.993 99.343C327.95 99.4806 326.809 104.052 324.413 106.106C322.185 108.015 320.241 109.47 318.861 110.278C316.669 111.561 314.907 112.466 313.491 112.799C313.451 113.322 313.469 114.041 313.704 114.84C314.286 116.824 315.795 117.889 316.309 118.222C316.256 118.595 316.234 119.114 316.38 119.7C316.403 119.788 316.908 121.821 318.355 122.238C318.506 122.283 319.074 122.425 319.904 122.096C322.642 121.027 334.252 112.568 335.193 111.88C335.384 111.476 335.619 110.842 335.685 110.047C335.801 108.663 335.317 107.584 334.909 106.737C333.067 102.915 330.679 99.6181 330.679 99.6181C330.546 99.5516 330.355 99.4628 330.111 99.4007C330.111 99.4007 329.57 99.2587 328.988 99.3341L328.993 99.343Z" fill="#E2C393"/>
<path d="M242.759 96.1914C243.944 96.5464 243.735 98.3038 245.226 102.227C246.571 105.76 248.639 108.436 249.127 109.177C251.621 112.984 252.931 113.743 252.908 116.038C252.895 117.631 251.546 118.332 251 119.162C249.438 121.536 247.379 122.486 246.416 122.854C245.346 122.073 244.25 121.519 242.661 119.974C241.161 118.514 238.201 115.589 235.8 110.921C234.908 109.186 233.808 106.66 233.058 103.421C233.914 102.706 235.33 101.521 237.083 100.035C241.055 96.6795 241.876 95.9295 242.754 96.1914H242.759Z" fill="#E2C393"/>
<path d="M303.807 282.726C304.078 282.757 305.316 282.189 305.977 282.504C306.132 282.58 306.35 282.886 306.412 282.957C307.14 283.769 309.532 287.674 309.82 288.256C309.847 288.566 309.931 289.285 309.629 289.658C309.137 290.266 307.131 289.88 306.536 289.827C302.968 289.525 300.496 288.624 300.496 288.624C296.493 287.164 294.785 285.944 294.225 285.531C292.672 284.377 291.989 283.489 291.829 282.424C291.807 282.265 291.496 280.951 292.046 280.6C292.326 280.423 292.725 280.56 293.338 280.84" fill="#744B1F"/>
<path d="M223.25 111.605C223.907 111.237 224.972 110.615 226.223 109.763C231.065 106.466 231.966 104.322 233.479 104.114C235.396 103.852 238.561 106.683 243.944 121.035C242.324 122.3 239.044 123.272 235.587 124.453C234.061 124.972 232.45 126.024 227.768 126.667C222.083 127.448 220.37 127.417 218.501 126.667C217.849 126.405 216.447 125.762 215.124 124.466C212.479 121.883 215.568 118.856 215.306 116.913" fill="#F9AE80"/>
<path d="M297.901 42.9726C290.383 36.1515 275.241 24.613 254.036 22.4473C249.505 21.9857 245.272 22.0079 241.411 22.323C241.122 22.3141 240.603 22.2564 240.421 21.9236C240.159 21.4399 240.776 20.6588 241.029 20.3437C243.785 16.8688 252.998 15.8703 252.998 15.8703C256.872 15.4487 261.106 15.0182 266.733 15.8969C268.651 16.1942 272.938 16.9886 278.006 19.1898C282.173 20.9961 285.195 23.0242 286.837 24.218C289.562 26.1973 292.234 28.1411 294.652 31.6249C297.129 35.193 297.914 38.0332 298.101 38.801C298.46 40.301 298.575 41.5924 298.606 42.52C298.58 42.7507 298.438 42.9371 298.247 42.9948C298.092 43.0436 297.954 42.9948 297.905 42.9726H297.901Z" fill="#D4A977"/>
<path d="M282.284 17.2275C281.046 17.627 278.006 18.4968 276.732 18.9983C276.537 19.0737 276.346 19.1492 276.155 19.229" fill="#C68862"/>
<path d="M282.284 17.2275C281.046 17.627 278.006 18.4968 276.732 18.9983C276.537 19.0737 276.346 19.1492 276.155 19.229" stroke="#D4A977" stroke-width="0.465981" stroke-miterlimit="10"/>
<path d="M285.177 18.8745C283.912 19.1719 280.81 19.7887 279.496 20.1881C279.297 20.2503 279.101 20.308 278.902 20.3701" stroke="#D4A977" stroke-width="0.465981" stroke-miterlimit="10"/>
<path d="M279.336 18.2176C278.103 17.1703 275.16 14.5342 273.811 13.5046C273.607 13.3492 273.403 13.1939 273.199 13.0386" stroke="#D4A977" stroke-width="0.523674" stroke-miterlimit="10"/>
<path d="M274.082 16.1853C273.283 15.6705 271.419 14.348 270.523 13.8732C270.385 13.8022 270.252 13.7312 270.115 13.6602" stroke="#D4A977" stroke-width="0.394974" stroke-miterlimit="10"/>
<path d="M285.373 21.124C284.108 21.4214 281.006 22.0382 279.692 22.4376C279.492 22.4998 279.297 22.5575 279.097 22.6196" stroke="#D4A977" stroke-width="0.465981" stroke-miterlimit="10"/>
<path d="M288.936 43.6561C289.033 43.5274 289.681 42.6664 290.249 42.7996C291.048 42.9904 291.221 45.0674 291.168 46.2567C291.092 47.9653 290.445 50.3707 289.721 50.3574C288.74 50.3396 287.24 45.9106 288.936 43.6561Z" fill="#F49A78"/>
<path d="M312.994 98.6767C312.262 100.248 311.268 102.928 311.197 106.368C311.148 108.697 311.539 110.641 311.938 112.026C311.09 106.496 310.247 100.967 309.399 95.437" stroke="#56664F" stroke-width="0.860956" stroke-miterlimit="10"/>
<path d="M257.183 96.6709L253.188 117.223" stroke="#56664F" stroke-width="0.860956" stroke-miterlimit="10"/>
<path d="M276.958 155.469L276.9 167.025" stroke="#56664F" stroke-width="0.860956" stroke-miterlimit="10"/>
<path d="M311.369 151.409C310.611 150.894 269.906 150.792 248.169 150.77C248.067 150.876 247.1 151.923 247.046 153.801C247.015 154.835 247.281 155.607 247.406 155.926C268.748 156.241 290.094 156.557 311.436 156.872C311.56 156.681 312.377 155.389 312.284 153.69C312.27 153.419 312.221 152.54 311.831 151.906C311.831 151.906 311.64 151.595 311.369 151.409Z" fill="#C2724A"/>
<path d="M276.803 166.577L277.175 167.527L276.767 167.687" fill="#5D6775"/>
<path d="M272.884 150.432H280.921C281.791 150.432 282.497 151.137 282.497 152.007V155.633C282.497 156.503 281.791 157.208 280.921 157.208H272.884C272.014 157.208 271.309 156.503 271.309 155.633V152.007C271.309 151.137 272.014 150.432 272.884 150.432Z" fill="#F7D900"/>
<path d="M327.639 196.95C327.639 196.706 327.683 196.094 328.123 195.574C328.424 195.219 328.77 195.073 329.13 194.922C329.494 194.771 330.151 194.563 331.043 194.611C331.105 194.421 331.211 194.203 331.38 193.994C332.032 193.182 333.12 193.178 333.315 193.182C333.364 192.956 333.444 192.623 333.572 192.228C333.865 191.318 334.198 190.737 334.509 190.133C334.779 189.605 335.143 188.842 335.516 187.866" stroke="#C68862" stroke-width="0.443791" stroke-miterlimit="10"/>
<path d="M334.212 183.095C334.198 185.825 334.616 186.588 335.037 186.73C335.161 186.774 335.485 186.832 335.614 187.085C335.738 187.329 335.632 187.635 335.521 187.857" stroke="#C68862" stroke-width="0.443791" stroke-miterlimit="10"/>
<path d="M333.369 187.772C333.307 188.283 332.725 188.274 332.468 188.966C332.233 189.601 332.25 189.557 331.966 189.92C331.713 190.249 331.66 190.488 330.897 190.719" stroke="#C68862" stroke-width="0.443791" stroke-miterlimit="10"/>
<path d="M328.185 194.363C329.081 193.444 329.756 193.213 330.222 193.182C330.368 193.173 330.546 192.743 331.034 192.512C331.234 192.415 331.54 192.41 331.704 192.17C331.939 191.82 332.019 191.798 332.072 191.474C332.13 191.092 333.333 190.808 334.411 190.315" stroke="#C68862" stroke-width="0.443791" stroke-miterlimit="10"/>
<path d="M333.431 185.017C333.315 185.385 333.08 186.299 333.377 187.409C333.688 188.58 334.407 189.281 334.695 189.534" stroke="#C68862" stroke-width="0.443791" stroke-miterlimit="10"/>
<path d="M334.513 182.918C333.661 183.375 333.51 184.285 333.248 184.715C333.173 184.839 333.102 184.981 332.964 185.27C332.543 186.135 332.276 186.841 332.161 187.147C331.691 188.412 331.757 188.496 331.447 189.304C331.034 190.382 330.355 192.042 329.232 192.131C328.921 192.157 328.655 192.113 328.491 192.06C328.189 191.962 327.95 191.7 327.754 191.465C327.532 191.19 327.426 190.844 327.457 190.489C327.501 189.992 327.586 189.468 327.954 188.536C328.478 187.223 328.881 186.961 329.423 185.576C329.96 184.205 329.836 183.761 330.266 182.212C330.519 181.293 330.972 179.958 331.833 178.396" stroke="#C68862" stroke-width="0.443791" stroke-miterlimit="10"/>
<path d="M188.36 37.3227C188.36 37.3227 193.543 36.5638 195.549 37.7976C197.555 39.0313 198.931 54.5906 198.931 54.5906C198.931 54.5906 217.863 49.6379 225.425 53.672C225.425 53.672 227.733 58.2208 227.569 60.6395C227.405 63.0582 192.163 62.2638 192.163 62.2638L189.243 58.9442L188.355 37.3271L188.36 37.3227Z" fill="#E2C7C7"/>
<path d="M185 34.7622C185 34.7622 187.751 35.601 188.324 36.7016C188.896 37.8022 189.584 53.4192 189.118 56.6988C188.652 59.9829 195.513 60.1781 195.513 60.1781L192.921 62.153C192.921 62.153 186.131 63.9459 187.884 56.184C189.637 48.4221 184.995 34.7622 184.995 34.7622H185Z" fill="#D82423"/>
<path d="M195.513 60.1777C195.513 60.1777 219.03 57.2043 228.775 61.0475C228.775 61.0475 230.959 89.4724 229.588 92.8851C228.784 94.8866 227.662 94.2431 227.662 94.2431L206.147 82.5758L195.331 72.3243L195.513 60.1777Z" fill="#D82423"/>
<path d="M189.62 62.033L193.414 68.1751L197.675 65.9606C197.675 65.9606 197.129 61.6558 195.806 60.1558C195.806 60.1558 193.774 60.7149 192.837 61.5049C191.901 62.2993 189.624 62.0286 189.624 62.0286L189.62 62.033Z" fill="#D82423"/>
<path d="M193.081 39.1958C193.081 39.1958 193.472 51.8084 191.985 54.5421" stroke="black" stroke-width="0.443791" stroke-miterlimit="10"/>
<path d="M192.122 57.6665C192.122 57.6665 194.869 55.1679 198.833 54.6221" stroke="black" stroke-width="0.443791" stroke-miterlimit="10"/>
<path d="M207.789 86.1084L204.718 90.6528L200.586 88.7179C200.586 88.7179 198.722 80.8095 193.57 75.6704C193.57 75.6704 193.091 71.9825 193.699 70.691C193.699 70.691 191.524 67.2605 192.052 66.1377C192.576 65.0194 197.946 61.7575 199.969 62.2768C201.993 62.7916 199.765 64.7309 199.765 64.7309L196.45 67.6511L197.018 67.9173L196.517 71.8893C196.517 71.8893 198.092 71.4987 199.423 69.5727C200.755 67.6466 200.888 63.9676 208.446 67.0741C208.446 67.0741 209.094 67.2472 208.929 67.5978C208.765 67.9529 208.361 68.5253 208.361 68.5253C208.361 68.5253 213.403 68.9336 209.169 71.6851C209.169 71.6851 208.069 72.1955 207.048 72.1156C206.027 72.0357 205.104 73.1585 205.104 73.1585C205.104 73.1585 206.564 73.5757 208.832 73.5446C211.1 73.5136 211.282 74.0106 211.282 74.0106C211.282 74.0106 212.782 74.7296 210.558 75.8745C208.335 77.0195 206.48 76.8775 206.48 76.8775L202.907 78.9944C202.907 78.9944 206.484 80.2193 207.807 86.1039L207.789 86.1084Z" fill="#F9AE80"/>
<path d="M199.365 73.9579C201.109 71.9298 205.365 67.3454 208.126 68.446C208.205 68.4771 208.285 68.517 208.365 68.557" stroke="#C68862" stroke-width="0.816576" stroke-miterlimit="10"/>
<path d="M205.294 73.0347C203.435 74.9563 202.436 75.5687 199.969 76.0125" stroke="#C68862" stroke-width="0.816576" stroke-miterlimit="10"/>
<path d="M222.248 113.709C221.809 112.639 217.983 104.979 215.755 100.985C214.708 99.1079 213.758 97.2928 210.811 91.306C209.955 89.5664 208.814 87.2409 207.474 84.4761C205.237 85.7542 202.73 86.6684 200.493 87.951C201.172 89.1403 202.37 91.2971 203.227 93.5871C204.447 96.8401 204.869 99.383 205.246 101.478C206.618 109.071 207.407 112.834 207.998 114.516C209.227 118.009 215.223 126.17 217.801 125.651C220.916 125.025 225.155 120.783 222.243 113.713L222.248 113.709Z" fill="#F9AE80"/>
</g>
<g clip-path="url(#clip1_114_676)">
<path d="M13.9194 65.7241H24.731C26.3964 65.7241 27.7524 67.0756 27.7524 68.7455V83.5659C27.7524 85.2314 26.401 86.5874 24.731 86.5874H13.9194V65.7287V65.7241Z" fill="#807065"/>
<path d="M14.1333 86.5828C21.9389 86.5828 28.2666 81.9134 28.2666 76.1535C28.2666 70.3935 21.9389 65.7241 14.1333 65.7241C6.3277 65.7241 0 70.3935 0 76.1535C0 81.9134 6.3277 86.5828 14.1333 86.5828Z" fill="#807065"/>
<path d="M151.78 82.619L138.211 82.7555V81.2676L152.358 81.5907L151.78 82.619Z" fill="#F9AE80"/>
<path d="M158.304 77.3589L29.7402 74.4414L29.6351 79.0724L158.199 81.99L158.304 77.3589Z" fill="#B97146"/>
<path d="M45.4737 167.221C46.0288 166.998 46.4241 166.682 46.3567 166.514C46.2893 166.346 45.7847 166.39 45.2296 166.613C44.6746 166.836 44.2792 167.153 44.3466 167.321C44.4141 167.489 44.9187 167.444 45.4737 167.221Z" fill="#F9AE80"/>
<path d="M79.3395 288.007C77.6513 287.812 76.6639 287.106 76.1588 287.621C75.6901 288.098 75.9586 289.127 76.0587 289.518C76.1725 289.964 76.4591 290.756 77.2828 291.557C77.7833 292.044 79.4942 293.527 83.8443 294.228C85.9466 294.564 88.927 295.101 92.9859 294.851C95.7207 294.683 96.7081 294.542 96.8173 294.014C96.9038 293.591 95.5023 292.458 94.3192 291.493C92.5263 290.037 92.8676 288.84 91.5799 288.403C91.1203 288.249 91.1749 288.203 90.5606 288.176" fill="#744B1F"/>
<path d="M76.8684 277.709C76.4362 280.781 76.2223 283.966 76.2633 287.261C78.1926 287.798 80.6634 288.303 83.5574 288.471C86.3559 288.635 88.7948 288.439 90.7333 288.148L92.021 278.474C87.2477 278.128 82.438 277.846 77.592 277.628C77.3644 277.618 77.1369 277.609 76.9048 277.596C76.8957 277.596 76.8867 277.596 76.8821 277.596C76.8776 277.632 76.873 277.669 76.8684 277.709Z" fill="#FAD5A9"/>
<path d="M42.145 276.044C41.8173 276.108 41.3259 280.695 40.9346 286.956C42.6136 287.393 44.9935 287.82 47.8511 287.739C50.7724 287.657 53.1704 287.07 54.8404 286.528C55.2681 283.202 55.6958 279.871 56.1236 276.545C51.7507 276.376 47.3733 276.213 43.0004 276.044C42.9276 276.031 42.8321 276.012 42.7137 276.008C42.7137 276.008 42.4271 275.99 42.1404 276.044H42.145Z" fill="#FAD5A9"/>
<path d="M83.3483 214.506C84.7998 211.703 96.212 214.883 101.472 216.49C98.3598 237.207 95.2428 257.925 92.1304 278.642C87.034 278.31 81.9377 277.983 76.8413 277.65C78.9163 257.215 80.9958 236.784 83.0707 216.348C83.1253 215.848 83.1799 215.343 83.2345 214.842C83.2618 214.724 83.3028 214.61 83.3528 214.51L83.3483 214.506Z" fill="#F9AE80"/>
<path d="M48.6975 213.418C47.2596 234.591 45.1255 255.427 42.3452 275.931C46.8273 276.131 51.3048 276.336 55.7869 276.536C59.2588 255.595 62.7352 234.65 66.2071 213.71C60.4191 212.904 54.6265 212.099 48.8385 211.293C48.793 212.003 48.743 212.713 48.6975 213.418Z" fill="#F9AE80"/>
<path d="M49.0616 192.869C48.1333 201.365 47.7193 208.336 47.519 212.945C47.6965 213.241 47.9695 213.578 48.3882 213.814C48.8887 214.097 49.3801 214.101 49.5485 214.106C50.5496 214.119 57.1612 214.288 66.2482 214.492C66.5576 214.342 66.9171 214.101 67.2128 213.719C67.7907 212.968 67.7862 212.081 67.7907 211.885C67.8271 210.525 69.4835 201.797 71.9406 189.397C76.1224 189.366 80.3041 189.334 84.4859 189.302C83.9171 194.266 83.3984 198.125 83.0389 200.691C82.4746 204.696 81.8785 208.527 81.9787 213.915C81.9832 214.256 81.9923 214.543 81.9968 214.729C83.4393 215.248 85.0547 215.73 86.8293 216.126C88.5812 216.517 91.4342 216.708 97.0675 217.082C98.1141 217.15 99.8569 217.255 102.091 216.89C102.382 216.84 102.623 216.795 102.792 216.763C103.083 215.248 103.479 213.082 103.875 210.465C104.348 207.33 105.263 201.292 105.399 195.204C105.577 187.432 105.672 183.25 104.125 179.942C97.6045 165.986 60.1644 164.038 51.7918 177.548C50.5359 179.573 50.0308 184.033 49.0662 192.869H49.0616Z" fill="#5D6775"/>
<path d="M47.2279 163.333C44.1837 172.143 43.6104 181.098 43.6104 181.098C43.4602 183.437 43.1917 187.018 42.6685 191.472C47.0095 192.596 51.9329 193.629 57.366 194.38C62.7081 195.117 67.6406 195.459 72.0636 195.559C75.0759 188.169 78.0882 180.784 81.1005 173.394C81.1096 174.741 81.1369 176.101 81.1779 177.48C81.3917 184.383 82.0106 190.917 82.907 197.051C86.7019 197.433 91.5617 197.579 97.1313 196.892C102.401 196.246 106.86 195.031 110.336 193.825C109.672 189.425 109.149 184.529 108.921 179.205C108.657 173.066 108.835 167.447 109.235 162.464C67.5906 163.233 51.4187 163.156 50.0536 162.623C49.8944 162.56 48.5975 161.973 47.7739 162.546C47.419 162.792 47.2825 163.16 47.2233 163.333H47.2279Z" fill="#A0995A"/>
<path d="M21.4639 117.393C18.8611 120.45 18.1877 123.285 16.7543 126.948C16.4449 127.736 15.5075 129.706 13.6373 133.651C11.3349 138.502 10.6796 139.644 9.85602 142.146C8.8504 145.204 8.34532 146.733 8.52733 148.385C8.85495 151.315 10.6978 153.254 14.3654 157.012C16.3675 159.06 18.4925 161.24 21.9963 163.647C27.7115 167.578 28.5579 166.263 33.3448 169.953C36.4618 172.351 37.3172 173.849 40.6435 175.459C42.4545 176.338 44.0335 177.102 46.0857 177.648C47.8285 178.112 48.7067 178.099 49.908 178.822C50.1673 178.977 50.7088 179.332 51.5051 179.45C51.7964 179.495 52.943 179.741 53.1842 179.323C53.3935 178.959 52.8702 178.162 52.2605 177.684C50.8635 176.588 48.9069 177.07 48.8614 176.72C48.8386 176.556 49.2391 176.328 49.6213 176.233C50.4495 176.019 50.909 176.474 52.5836 177.011C53.2343 177.22 54.0488 177.434 55.018 177.302C55.7142 177.211 55.8006 177.034 55.8188 176.97C55.9372 176.57 54.8815 175.933 54.6312 175.782C53.0431 174.827 51.3413 174.759 50.9864 174.749C50.2265 174.731 49.6395 174.822 49.6213 174.731C49.6031 174.636 50.2037 174.413 50.7907 174.304C51.6917 174.135 52.4653 174.249 53.9305 174.481C54.522 174.572 55.1181 174.686 55.8416 174.463C56.101 174.381 56.4422 174.276 56.4832 174.053C56.5605 173.653 55.6141 173.07 54.7677 172.807C54.2581 172.647 53.885 172.638 52.6837 172.652C50.3767 172.679 49.553 172.743 49.5257 172.593C49.503 172.47 50.0172 172.247 50.4631 172.124C51.6007 171.815 52.0557 172.251 53.3298 172.083C54.3445 171.951 54.8906 171.56 55.0271 171.46C55.1317 171.382 55.9872 170.741 55.8461 170.29C55.7915 170.117 55.5504 169.844 53.4481 169.785C51.3868 169.726 50.8817 169.972 49.3528 169.862C48.1652 169.781 47.0549 169.394 46.3906 168.907C45.9765 168.602 45.7945 168.211 45.8673 167.878C45.9173 167.642 45.981 167.433 46.0356 167.246C46.1221 166.937 46.2086 166.723 46.0903 166.582C45.7945 166.236 45.5988 167.269 44.1518 167.018C43.5785 166.918 43.1689 166.677 42.7094 166.377C39.2693 164.115 37.5584 162.113 37.5584 162.113C35.5836 159.802 34.5279 157.904 33.9272 156.944C32.4074 154.514 29.6363 151.397 24.1258 148.649C25.1042 147.561 26.4602 145.978 27.9663 143.989C33.95 136.072 39.1874 126.016 38.2819 121.078C37.0579 114.412 26.3828 114.33 22.7562 116.16C22.3558 116.364 22.0554 116.71 21.473 117.393H21.4639Z" fill="#F9AE80"/>
<path d="M60.0597 80.8854C58.1668 80.7352 55.4366 80.6715 52.2059 81.1584C49.7169 81.5316 47.5828 81.8546 45.2393 83.0696C43.2827 84.0888 41.6764 85.8544 38.5458 89.3536C36.8531 91.2419 34.7326 93.6263 32.2618 97.1392C30.337 99.8739 28.8582 102.363 27.7524 104.379C27.9345 105.084 28.2575 106.108 28.8445 107.245C30.0868 109.662 31.6748 110.981 34.1729 113.052C37.3718 115.709 39.9928 117.001 40.73 117.356C41.772 117.857 42.673 118.212 43.3236 118.448C43.8697 118.062 44.4157 117.675 44.9618 117.288C45.0209 118.348 45.0983 120.05 45.0983 122.139C45.1028 128.004 44.5249 129.11 44.5522 134.161C44.575 138.474 44.9982 138.411 44.8935 142.629C44.8071 146.064 44.5022 147.047 44.6068 149.5C44.7479 152.79 45.4987 155.556 46.2677 157.645C67.4768 157.504 88.6858 157.367 109.895 157.226C110.154 157.09 110.491 156.862 110.741 156.48C111.601 155.174 110.687 153.231 110.218 152.066C109.276 149.741 109.208 147.147 108.589 144.713C108.038 142.556 107.524 138.725 106.487 131.057C106.205 128.982 105.818 126.029 105.386 122.444C105.74 121.725 106.286 120.623 106.992 119.299C109.326 114.908 110.714 113.024 112.052 110.572C113.117 108.624 114.482 105.707 115.542 101.758C114.978 100.961 113.913 99.4598 112.575 97.5669C107.561 90.4684 106.168 88.3934 103.584 85.6951C101.208 83.2106 99.9342 81.9092 97.65 80.981C95.0017 79.9071 92.6719 80.039 90.4058 80.1938C83.007 80.7079 77.6513 81.4451 75.4808 81.6772C71.9361 82.0594 66.6987 82.2141 60.0552 80.8854H60.0597Z" fill="#A0995A"/>
<path d="M53.475 46.8903C53.3202 47.1178 53.4977 47.4227 53.7707 47.3999C62.0751 46.7811 74.097 44.8381 86.9517 38.5723C97.0125 33.667 111.337 23.8702 109.899 20.2527C108.42 16.5305 90.055 18.7374 75.5213 26.5412C64.3912 32.5158 57.4428 40.9749 53.4795 46.8903H53.475Z" fill="#6E533D"/>
<path d="M61.1334 54.9851C61.1289 56.3093 61.0925 57.6016 61.0288 58.8665C60.915 59.5127 61.2062 60.0587 61.6067 60.177C61.8706 60.2544 62.1254 60.1361 62.2346 60.0724C62.0253 61.2191 62.1982 62.1018 62.3393 62.5887C62.5486 63.3259 62.7897 64.1677 63.4905 64.4225C64.3004 64.7183 65.1605 64.0403 65.2742 63.9493C65.7019 63.6034 66.2343 62.93 66.3754 61.169C66.5847 58.5071 65.6792 56.109 64.9056 54.5619C63.6452 54.4391 62.3893 54.3162 61.1289 54.1934C61.1289 54.4527 61.1289 54.7166 61.1289 54.9806L61.1334 54.9851Z" fill="#744B1F"/>
<path d="M63.345 39.7868C63.3405 41.8163 63.3359 43.8457 63.3314 45.8797C62.3576 44.6921 61.6796 44.683 61.4157 44.7194C59.9505 44.915 59.3316 48.0593 59.2634 49.8339C59.227 50.8896 59.1451 53.0328 60.6012 54.4252C60.8605 54.6709 61.5977 55.3762 62.7535 55.4718C63.5543 55.5355 64.1868 55.2761 64.4963 55.1214C65.3062 63.2346 66.421 70.0146 67.3994 75.0882C69.0147 83.4836 70.0704 88.7984 72.837 95.4555C75.1395 101.002 77.724 105.289 79.6488 108.16C80.0857 106.995 80.6636 105.339 81.2187 103.314C82.8295 97.4485 83.0525 92.8345 83.2481 88.316C83.4211 84.3072 83.412 79.0971 82.7886 72.9905C85.6644 71.1203 88.1488 70.2421 89.928 69.7825C91.3523 69.414 92.2669 69.3321 94.5102 68.6677C96.9264 67.9533 98.1323 67.5984 99.42 66.7702C100.298 66.206 102.542 64.7635 103.351 62.2518C103.893 60.559 103.52 59.2076 103.024 57.078C102.218 53.6152 101.836 50.066 101.058 46.5986C100.753 45.2335 99.6703 40.4239 98.8967 36.6425C96.6989 25.8947 97.386 25.4305 96.212 24.3294C91.4797 19.8928 77.5466 24.8708 68.9692 32.975C66.28 35.5141 64.469 38.0304 63.345 39.7914V39.7868Z" fill="#F9AE80"/>
<path d="M67.3948 75.0838C67.2083 74.8472 61.4566 77.2043 57.7754 78.8606C57.5934 80.0983 57.4114 81.7455 57.3841 83.693C57.3158 88.7848 58.3442 92.6344 58.7082 93.9039C60.219 99.1505 62.7398 103.018 64.6328 105.439C65.6065 104.42 66.6713 103.378 67.8271 102.322C69.5153 100.784 71.167 99.4417 72.7369 98.2677C73.3512 99.4781 74.0792 100.893 74.921 102.477C76.2315 104.948 76.8595 106.031 77.9607 107.232C78.5386 107.86 79.0664 108.328 79.4395 108.633C79.7808 108.16 80.2768 107.414 80.7637 106.449C81.4826 105.029 81.8284 103.851 82.5565 100.916C83.5212 97.03 83.1207 96.5204 83.7259 96.0062C84.6314 95.2326 86.7291 95.128 91.9893 98.1903C92.4216 98.295 93.0086 98.3542 93.3908 98.0356C94.1644 97.3895 93.6274 95.5967 93.3135 94.6047C92.1713 91.0372 91.6025 89.2535 89.6505 85.8726C88.3991 83.7067 86.7974 80.4304 85.5961 75.8938C84.636 75.4797 83.8943 75.0611 82.9342 74.647C82.9524 75.6344 82.9797 77.1542 83.0161 79.0107C83.0707 81.8456 82.9114 85.0172 82.9478 88.9077C82.9797 92.416 82.9569 93.7856 82.7158 95.6877C82.6748 96.0198 82.4837 97.4623 82.0378 99.4235C81.5691 101.48 80.7864 104.247 79.4213 107.441C78.7069 106.736 78.129 105.585 77.2144 104.265C77.037 104.015 76.5592 103.196 75.7674 101.662C74.7845 99.7511 74.0019 98.0493 73.6424 97.3121C69.9066 87.579 70.3343 88.439 69.3105 84.3801C69.3105 84.3801 68.86 82.2233 68.3868 80.121C67.9591 78.2326 67.7315 76.3988 67.4676 75.4478" fill="#E2C393"/>
<path d="M82.1424 47.1494C82.8964 47.1494 83.5075 46.1247 83.5075 44.8606C83.5075 43.5965 82.8964 42.5718 82.1424 42.5718C81.3885 42.5718 80.7773 43.5965 80.7773 44.8606C80.7773 46.1247 81.3885 47.1494 82.1424 47.1494Z" fill="black"/>
<path d="M86.3013 59.6992C86.5106 59.9904 87.7437 61.6468 90.0189 61.9607C92.6672 62.3248 94.4828 60.5638 94.683 60.3545" stroke="black" stroke-width="0.455032" stroke-miterlimit="10"/>
<path d="M97.7728 45.4751C98.5267 45.4751 99.1379 44.4503 99.1379 43.1863C99.1379 41.9222 98.5267 40.8975 97.7728 40.8975C97.0189 40.8975 96.4077 41.9222 96.4077 43.1863C96.4077 44.4503 97.0189 45.4751 97.7728 45.4751Z" fill="black"/>
<path d="M90.1783 43.5229C91.375 43.3182 91.6799 45.1565 96.1574 51.2494C96.4168 51.5998 96.8672 52.2095 96.667 52.7055C96.2757 53.6793 93.5774 53.7066 91.5616 52.9967C90.697 52.6918 89.1999 52.1686 88.3536 50.7352C86.7655 48.046 88.4491 43.8142 90.1783 43.5184V43.5229Z" fill="#F49A78"/>
<path d="M84.3423 50.8604C87.6555 49.488 89.2289 45.6896 87.8565 42.3764C86.4841 39.0633 82.6858 37.4899 79.3726 38.8623C76.0594 40.2346 74.4861 44.033 75.8584 47.3462C77.2308 50.6594 81.0292 52.2327 84.3423 50.8604Z" stroke="black" stroke-width="0.455032" stroke-miterlimit="10"/>
<path d="M97.7727 50.0023C100.904 50.0023 103.442 47.0951 103.442 43.5089C103.442 39.9228 100.904 37.0156 97.7727 37.0156C94.6414 37.0156 92.103 39.9228 92.103 43.5089C92.103 47.0951 94.6414 50.0023 97.7727 50.0023Z" stroke="black" stroke-width="0.42318" stroke-miterlimit="10"/>
<path d="M58.585 43.0044C58.2756 43.0089 58.13 42.6222 58.3711 42.431C60.6509 40.6519 63.4766 37.5303 67.3034 35.1096C79.0524 27.6743 84.4036 25.5175 90.1597 23.4562C94.9239 21.7498 99.0101 21.7225 103.005 22.173C107.073 22.628 109.494 24.0978 111.451 25.2854C112.87 26.1454 114.9 27.4059 114.672 28.6163C114.513 29.4717 113.298 29.995 112.561 30.1725C111.041 30.5365 110.299 29.7311 108.006 29.2852C105.622 28.821 103.592 29.1395 103.56 29.3944C103.533 29.6355 105.303 29.6128 106.782 30.9506C106.864 31.0234 108.502 32.5341 108.115 33.5079C107.678 34.5954 104.93 34.4316 102.559 34.286C99.133 34.0766 96.4483 33.2803 95.0058 32.8435C94.2231 32.6069 93.2767 32.3202 92.0299 31.8151C90.3508 31.1326 88.8174 30.3317 88.781 30.4C88.7355 30.4864 91.3337 31.3419 92.4485 33.6216C92.6669 34.0675 93.2403 35.2461 92.7807 36.1789C91.998 37.767 88.7582 37.5531 88.1166 37.5121C82.5652 37.1481 78.5746 32.7753 78.1195 33.2894C77.8147 33.6307 79.7577 35.3098 79.2298 36.4019C78.884 37.1117 77.6782 37.1891 76.1174 37.2892C75.0435 37.3574 73.9196 37.3256 71.0074 37.0662C69.1964 36.907 68.2089 36.7932 68.0224 37.2027C67.8176 37.6578 68.8642 38.1856 68.7777 39.0866C68.7004 39.8419 67.854 40.57 66.994 40.7656C65.3559 41.1388 64.1819 39.4642 63.2582 40.0103C62.7486 40.3106 62.926 40.9294 62.5392 41.5892C62.1388 42.2718 61.1559 42.968 58.5805 43.0089L58.585 43.0044Z" fill="#744B1F"/>
<path d="M59.8734 31.1366C58.4901 31.2322 54.4176 20.8119 58.2171 12.8352C59.0771 11.0333 60.1419 9.76831 60.8017 9.06301C63.6638 6.1144 67.1312 5.26804 68.6828 4.99047C69.5747 4.18962 71.0171 3.07934 73.0238 2.24663C74.2206 1.75064 77.5787 0.353692 81.2599 1.35931C83.8627 2.06916 85.4098 3.64813 87.2846 5.60932C89.1274 7.53865 91.9304 11.0106 93.928 16.4163C92.1579 16.2753 90.6973 16.2889 89.678 16.3299C74.2979 16.9214 63.7093 27.2279 62.8402 28.1971C62.0439 29.089 61.1202 29.8625 60.3148 30.7499C60.0145 31.0775 59.9735 31.1366 59.8734 31.1412V31.1366Z" fill="#D4A977"/>
<mask id="mask1_114_676" style="mask-type:luminance" maskUnits="userSpaceOnUse" x="56" y="1" width="38" height="31">
<path d="M59.8734 31.1366C58.4901 31.2322 54.4176 20.8119 58.2171 12.8352C59.0771 11.0333 60.1419 9.76831 60.8017 9.06301C63.6638 6.1144 67.1312 5.26804 68.6828 4.99047C69.5747 4.18962 71.0171 3.07934 73.0238 2.24663C74.2206 1.75064 77.5787 0.353692 81.2599 1.35931C83.8627 2.06916 85.4098 3.64813 87.2846 5.60932C89.1274 7.53865 91.9304 11.0106 93.928 16.4163C92.1579 16.2753 90.6973 16.2889 89.678 16.3299C74.2979 16.9214 63.7093 27.2279 62.8402 28.1971C62.0439 29.089 61.1202 29.8625 60.3148 30.7499C60.0145 31.0775 59.9735 31.1366 59.8734 31.1412V31.1366Z" fill="white"/>
</mask>
<g mask="url(#mask1_114_676)">
<path d="M54.4353 21.0443C54.4353 21.0443 58.8081 19.3243 64.7463 19.7156C70.6845 20.107 77.246 22.1182 77.246 22.1182L74.7479 26.1225L61.3108 31.5146L54.3579 29.1712L54.4353 21.0443Z" fill="#F9DBBD"/>
<path d="M65.2379 23.374C65.2379 23.374 77.8878 8.95405 89.1909 5.55041C100.494 2.15132 101.031 13.8866 101.031 13.8866L92.7629 20.48L72.9826 25.5536L65.2334 23.3695L65.2379 23.374Z" fill="#F9DBBD"/>
</g>
<path d="M88.1035 43.5409C88.1718 43.4545 89.0864 42.3351 90.5015 42.4761C91.4708 42.5717 92.0668 43.1951 92.2216 43.3635" stroke="black" stroke-width="0.455032" stroke-miterlimit="10"/>
<path d="M27.5701 104.47C28.6394 104.611 29.8088 109.298 32.266 111.404C34.5503 113.361 36.5433 114.854 37.9585 115.682C40.2063 116.997 42.0128 117.925 43.4644 118.266C43.5053 118.803 43.4871 119.54 43.2459 120.359C42.6499 122.393 41.1027 123.486 40.5749 123.827C40.6295 124.209 40.6523 124.741 40.5021 125.342C40.4794 125.433 39.9606 127.517 38.4772 127.945C38.3225 127.99 37.7401 128.136 36.8891 127.799C34.0816 126.703 22.1779 118.03 21.2133 117.324C21.0176 116.91 20.7764 116.26 20.7082 115.445C20.5899 114.025 21.0859 112.92 21.5045 112.051C23.3929 108.133 25.841 104.752 25.841 104.752C25.9775 104.684 26.1731 104.593 26.4234 104.529C26.4234 104.529 26.9785 104.383 27.5746 104.461L27.5701 104.47Z" fill="#E2C393"/>
<path d="M115.987 101.239C114.773 101.603 114.986 103.405 113.457 107.427C112.079 111.049 109.958 113.793 109.458 114.553C106.9 118.457 105.558 119.235 105.581 121.588C105.595 123.222 106.978 123.941 107.537 124.791C109.139 127.226 111.251 128.2 112.238 128.577C113.335 127.776 114.459 127.208 116.088 125.624C117.626 124.127 120.661 121.128 123.122 116.341C124.037 114.562 125.165 111.973 125.934 108.651C125.056 107.919 123.605 106.704 121.807 105.18C117.735 101.739 116.893 100.97 115.992 101.239H115.987Z" fill="#E2C393"/>
<path d="M43.1187 287.42C42.8411 287.42 41.6398 286.706 40.93 286.956C40.7616 287.015 40.5114 287.302 40.434 287.37C39.6013 288.121 36.7346 291.834 36.3751 292.398C36.3114 292.712 36.1521 293.436 36.4161 293.85C36.8483 294.523 38.9369 294.35 39.5512 294.364C43.2233 294.45 45.8398 293.804 45.8398 293.804C50.0807 292.753 51.96 291.698 52.5697 291.343C54.2806 290.337 55.0724 289.509 55.3545 288.439C55.3955 288.28 55.855 286.974 55.3363 286.556C55.0678 286.342 54.6492 286.437 53.994 286.656" fill="#744B1F"/>
<path d="M152.099 82.0502C149.933 81.8591 143.522 83.2379 141.629 81.3631C141.36 81.0992 141.165 80.6715 140.145 79.4884C139.385 78.6056 139.131 78.4191 138.817 78.3144C137.775 77.964 136.71 78.7012 136.551 78.8104C135.245 79.7114 135.022 81.3313 134.963 81.7817C134.476 85.3401 138.489 88.2478 138.739 88.4252C138.407 93.0529 138.057 97.7534 137.766 101.803C137.638 103.555 137.552 104.815 137.156 106.558C136.578 109.097 135.977 109.88 135.691 111.864C135.522 113.052 135.445 114.803 135.996 117.047C135.322 116.669 134.23 116.032 132.947 115.158C127.982 111.777 127.059 109.58 125.507 109.366C123.541 109.097 120.297 112 114.777 126.716C116.438 128.013 119.055 129.756 122.599 130.966C124.165 131.499 126.563 131.831 131.363 132.491C137.192 133.291 138.949 133.26 140.864 132.491C141.533 132.222 142.971 131.562 144.327 130.234C147.039 127.585 147.576 124.091 147.845 122.098C148.973 113.611 148.614 105.994 148.577 105.302C148.377 101.002 148.272 94.8321 148.791 87.2103C149.251 86.8144 149.819 86.2502 150.365 85.4948" fill="#F9AE80"/>
<path d="M143.43 75.4162C142.616 75.4071 141.765 75.8075 141.242 76.4263C140.973 76.7449 140.846 77.1225 140.591 77.8779C140.327 78.656 140.2 79.0564 140.382 79.4341C140.559 79.8118 140.955 80.0711 141.369 80.1303C141.883 80.1986 142.402 79.9528 142.698 79.4978C142.652 79.6343 142.593 79.8846 142.698 80.1303C142.907 80.6217 143.626 80.7309 144.086 80.6581C144.641 80.5717 144.982 80.1895 145.096 80.0484C145.059 80.1758 145.041 80.326 145.096 80.4716C145.269 80.9448 146.092 81.1496 146.698 80.9357C147.071 80.8038 147.298 80.5307 147.412 80.3669C147.426 80.5353 147.471 80.7674 147.644 80.9357C148.004 81.2861 148.75 81.1814 149.223 80.913C150.324 80.2941 150.119 78.7106 151.161 77.7778C151.384 77.5776 151.73 77.2682 152.213 77.2317C152.499 77.209 152.654 77.2955 152.718 77.209C152.863 77.0179 152.399 76.2352 151.707 75.8803C151.039 75.539 150.27 75.7483 149.983 75.8166C149.815 75.8576 149.678 75.9076 149.582 75.944C149.437 75.8211 149.259 75.7028 149.036 75.6073C148.117 75.2205 147.203 75.6209 146.975 75.7347C146.784 75.6164 146.497 75.4753 146.133 75.4389C145.656 75.3934 145.423 75.5618 144.955 75.63C144.245 75.7301 144.136 75.4253 143.44 75.4207L143.43 75.4162Z" fill="#F9AE80"/>
<path d="M138.289 81.7273C138.785 82.469 139.895 83.5884 140.568 83.2926C141.251 82.9923 141.806 81.7319 141.902 81.5908" stroke="#C68862" stroke-width="0.455032" stroke-miterlimit="10"/>
<path d="M142.693 79.4067C142.935 78.7833 143.426 77.6502 143.667 77.0269" stroke="#C68862" stroke-width="0.455032" stroke-miterlimit="10"/>
<path d="M145.142 80.0619C145.383 79.4386 145.875 78.3055 146.116 77.6821" stroke="#C68862" stroke-width="0.455032" stroke-miterlimit="10"/>
<path d="M147.38 80.2577C147.622 79.6344 148.113 78.5013 148.354 77.8779" stroke="#C68862" stroke-width="0.455032" stroke-miterlimit="10"/>
<path d="M158.606 76.0029H161.418V83.3699H158.606C157.651 83.3699 156.877 82.5963 156.877 81.6408V77.7366C156.877 76.781 157.651 76.0075 158.606 76.0075V76.0029Z" fill="#807065"/>
<path d="M29.2811 80.417H26.469V73.05H29.2811C30.2367 73.05 31.0103 73.8236 31.0103 74.7791V78.6833C31.0103 79.6389 30.2367 80.4124 29.2811 80.4124V80.417Z" fill="#807065"/>
<path d="M160.349 70.4106H159.439V88.5755H160.349V70.4106Z" fill="#807065"/>
<path d="M159.703 70.4063V71.3164H167.948V70.4063H159.703Z" fill="#807065"/>
<path d="M159.703 87.6651V88.5752H167.948V87.6651H159.703Z" fill="#807065"/>
<path d="M169.017 70.4106H166V88.5755H169.017V70.4106Z" fill="#807065"/>
<path d="M53.8026 47.3406C60.8783 39.7052 75.3165 26.5684 96.7849 22.4731C101.372 21.5994 105.699 21.2445 109.671 21.2218C109.963 21.1854 110.491 21.0852 110.645 20.7258C110.873 20.207 110.167 19.4653 109.885 19.165C106.759 15.8615 97.2627 15.6567 97.2627 15.6567C93.2675 15.5703 88.9083 15.5066 83.2341 16.9035C81.3002 17.3813 76.9956 18.5689 72.013 21.2673C67.9131 23.4833 65.01 25.8267 63.4402 27.1918C60.8328 29.4578 58.2756 31.683 56.1142 35.4506C53.9027 39.3138 53.3521 42.2852 53.2292 43.0861C52.9926 44.6514 52.9926 45.9801 53.0427 46.9311C53.0882 47.1632 53.252 47.3406 53.4522 47.3861C53.616 47.4225 53.7525 47.3588 53.798 47.3361L53.8026 47.3406Z" fill="#D4A977"/>
<path d="M67.4717 19.6562C68.7731 19.952 71.9537 20.5709 73.3006 20.9713C73.5054 21.0304 73.7102 21.0942 73.9104 21.1533" fill="#C68862"/>
<path d="M67.4717 19.6562C68.7731 19.952 71.9537 20.5709 73.3006 20.9713C73.5054 21.0304 73.7102 21.0942 73.9104 21.1533" stroke="#D4A977" stroke-width="0.477784" stroke-miterlimit="10"/>
<path d="M64.6602 21.5903C65.9798 21.7814 69.2014 22.1364 70.5801 22.4276C70.7894 22.4731 70.9942 22.514 71.2035 22.5596" stroke="#D4A977" stroke-width="0.477784" stroke-miterlimit="10"/>
<path d="M70.5615 20.4024C71.731 19.2238 74.4976 16.2707 75.7853 15.0967C75.981 14.9192 76.1766 14.7418 76.3723 14.5688" stroke="#D4A977" stroke-width="0.536938" stroke-miterlimit="10"/>
<path d="M75.749 17.8593C76.518 17.2632 78.3063 15.7434 79.1754 15.1791C79.3074 15.0927 79.4393 15.0108 79.5713 14.9243" stroke="#D4A977" stroke-width="0.404979" stroke-miterlimit="10"/>
<path d="M64.6602 23.9111C65.9798 24.1022 69.2014 24.4572 70.5801 24.7484C70.7894 24.7939 70.9942 24.8348 71.2035 24.8804" stroke="#D4A977" stroke-width="0.477784" stroke-miterlimit="10"/>
<path d="M63.022 47.2405C62.9128 47.1177 62.1711 46.2941 61.6068 46.4852C60.806 46.7536 60.8151 48.8877 60.9743 50.0981C61.2019 51.8364 62.0755 54.2344 62.8172 54.157C63.8183 54.0524 64.9559 49.3928 63.022 47.2405Z" fill="#F49A78"/>
<path d="M43.9746 103.787C44.7254 105.398 45.7447 108.146 45.8175 111.673C45.8675 114.062 45.4671 116.055 45.0576 117.474C45.9267 111.805 46.7913 106.135 47.6604 100.465" stroke="#56664F" stroke-width="0.882763" stroke-miterlimit="10"/>
<path d="M101.199 101.731L105.299 122.804" stroke="#56664F" stroke-width="0.882763" stroke-miterlimit="10"/>
<path d="M80.9229 162.018L80.982 173.867" stroke="#56664F" stroke-width="0.882763" stroke-miterlimit="10"/>
<path d="M45.6442 157.854C46.4223 157.326 88.1578 157.221 110.445 157.199C110.55 157.308 111.542 158.382 111.597 160.307C111.628 161.367 111.355 162.159 111.228 162.486C89.3455 162.809 67.4584 163.132 45.5759 163.455C45.4485 163.26 44.6112 161.936 44.7068 160.193C44.7204 159.915 44.7705 159.014 45.1709 158.364C45.1709 158.364 45.3666 158.045 45.6442 157.854Z" fill="#C2724A"/>
<path d="M81.0863 173.407L80.7041 174.381L81.1227 174.545" fill="#5D6775"/>
<path d="M85.1045 156.858H76.8639C75.9718 156.858 75.2485 157.581 75.2485 158.473V162.191C75.2485 163.083 75.9718 163.806 76.8639 163.806H85.1045C85.9967 163.806 86.7199 163.083 86.7199 162.191V158.473C86.7199 157.581 85.9967 156.858 85.1045 156.858Z" fill="#F7D900"/>
</g>
<defs>
<clipPath id="clip0_114_676">
<rect width="163.093" height="290" fill="white" transform="matrix(-1 0 0 1 348.093 0)"/>
</clipPath>
<clipPath id="clip1_114_676">
<rect width="169.013" height="293.91" fill="white" transform="translate(0 1)"/>
</clipPath>
</defs>
</svg>
