<svg width="499" height="315" viewBox="0 0 499 315" fill="none" xmlns="http://www.w3.org/2000/svg">
<path d="M15.7302 142.427C16.4226 132.111 19.2138 124.586 19.2138 124.586C19.2138 124.586 34.8576 131.917 54.764 129.495C59.8055 128.889 62.7481 125.71 61.861 121.731C60.8441 116.736 58.1827 114.227 47.126 112.237L37.8868 110.551C18.3916 107.026 6.70746 96.6453 1.49287 68.8562C-5.86382 28.308 14.7133 4.30351 44.3131 0.713647C57.8581 -0.929907 71.1867 0.540641 76.12 2.22745C89.4053 6.50933 92.586 11.5049 90.2924 37.3908C89.6866 45.1545 87.5229 53.0911 87.5229 53.0911C87.5229 53.0911 71.4031 46.6034 55.7376 48.4848C50.1336 49.1552 46.4985 51.6422 47.3207 56.6593C48.4891 61.3737 50.4149 62.6929 59.0914 64.4446L69.975 66.7153C97.1948 72.3812 105.958 89.2493 109.831 109.513C117.88 150.796 94.8147 173.806 63.6569 177.569C52.4488 178.931 38.5792 178.044 33.2997 176.639C15.4273 171.881 13.5449 162.906 15.7086 142.405L15.7302 142.427Z" fill="#E93E8F"/>
<path d="M124.263 57.5891L119.784 57.1566C115.998 56.789 113.92 55.0157 114.44 51.4258C115.284 46.3005 114.894 39.683 115.695 35.2498C116.127 32.6979 117.014 30.7084 122.878 29.1946C136.034 25.9724 137.808 20.4362 139.409 16.4138C141.183 12.4347 143.282 10.5532 147.934 11.0074C155.334 11.7426 172.341 9.94771 170.74 20.8903C170.242 24.1342 169.918 29.3027 169.636 32.0492L180.801 33.1521C186.297 33.6927 187.466 35.8986 187.163 38.991C186.73 43.2945 185.778 51.1663 185.086 58.3893C184.739 62.0008 183.549 63.4281 179.763 63.0604L166.867 61.7845C165.331 75.6898 163.167 90.5467 163.34 94.0501C163.34 97.6832 164.941 98.8942 167.516 99.3051C169.225 99.6511 171.649 99.716 174.353 100.322C176.734 100.905 179.763 103.457 179.568 107.242L179.243 115.892C179.027 119.871 177.512 122.834 174.418 124.434C167.819 127.938 153.971 127.613 145.727 126.813C123.895 124.65 118.832 110.983 119.892 94.9583C120.498 87.0433 123.614 66.0232 124.285 57.5891H124.263Z" fill="#E93E8F"/>
<path d="M236.193 39.9212C269.147 38.2344 287.322 58.7356 288.404 86.6976C289.291 114.314 274.166 136.696 241.581 138.361C208.8 140.027 191.317 119.136 189.889 91.3904C188.483 63.623 203.78 41.5864 236.215 39.9428L236.193 39.9212ZM247.315 88.4493C246.903 80.5127 245.346 73.6789 238.27 74.0466C230.502 74.4358 229.832 81.3993 230.221 89.336C230.632 97.4456 232.385 104.604 239.46 104.258C247.228 103.868 247.726 96.5806 247.293 88.4709L247.315 88.4493Z" fill="#E93E8F"/>
<path d="M300.824 101.901C294.333 79.8639 287.582 56.4649 285.158 50.1718C283.925 46.9496 282.454 44.1599 281.61 41.5215C279.078 33.8012 279.338 29.0003 292.796 24.6102C310.041 18.9659 317.182 29.1733 320.406 39.5536L321.401 39.2292C318.501 28.1785 324.646 14.1867 336.634 10.2724C351.563 5.38499 358.639 11.4402 363.334 29.6923C366.645 42.6028 360.738 55.5999 348.231 57.3516C344.401 57.8706 340.312 57.0272 338.97 52.9399C337.413 48.1823 335.184 46.9063 332.544 47.7714C331.224 48.2039 330.467 48.6364 330.142 48.7445C334.102 63.623 338.603 78.4799 345.31 92.8177C348.772 100.041 350.135 107.588 336.525 112.043L321.249 117.038C314.196 119.352 309.717 117.904 306.796 114.508C303.528 111.2 302.144 106.399 300.845 101.922L300.824 101.901Z" fill="#E93E8F"/>
<path d="M379.713 100.841C383.348 102.117 389.602 103.631 395.4 104.539C402.736 105.685 404.012 102.052 405.051 99.9326L395.833 98.4836C380.99 96.1481 380.471 86.0921 379.649 79.1503C378.696 70.7811 374.52 39.705 373.352 27.1188C372.4 18.7497 370.647 8.86673 384.127 10.9861L400.68 13.6028C414.333 15.7653 414.441 25.0428 414.463 29.2381C414.614 42.7326 415.307 61.5469 415.177 76.7282L416.367 76.9228C420.413 62.3471 427.597 35.6826 428.614 31.4872C430.539 23.7452 432.4 18.6199 445.188 20.6527L463.948 23.6155C477.081 25.6915 475.935 30.7519 471.391 41.7594C462.498 62.5634 450.965 91.3255 443.976 106.831C436.771 122.467 428.938 142.211 391.744 136.35C382.18 134.836 375.299 133.042 370.734 130.922C365.692 128.543 363.637 125.948 364.308 122.921L368.181 106.226C369.436 100.473 372.919 98.4188 379.692 100.884L379.713 100.841Z" fill="#E93E8F"/>
<path d="M116.928 184.467C115.37 170.692 108.338 152.375 127.422 150.45L162.994 146.882C194.455 143.725 213.863 166.194 215.897 200.427C218.061 234.142 207.026 261.131 176.279 264.223L167.516 265.088C168.144 271.381 168.576 275.728 169.117 279.339C171.173 293.05 178.054 311.41 158.969 313.313L142.98 314.914C128.547 316.363 126.73 299.949 125.648 287.341C123.29 255.097 118.053 193.853 116.928 184.446V184.467ZM163.686 226.897C174.678 225.794 176.409 217.079 175.717 206.655C175.219 196.448 172.082 187.733 161.609 188.771L160.398 188.901C160.917 199.346 161.544 212.473 162.821 226.984L163.686 226.897Z" fill="#E93E8F"/>
<path d="M214.015 290.044C217.909 261.109 218.926 250.101 220.354 234.639C221.155 226.053 216.373 215.716 240.629 217.965C259.042 219.674 266.182 224.842 264.278 239.915C262.136 257.411 258.414 277.004 258.285 291.558C258.241 293.98 258.328 296.769 258.436 299.364C258.717 307.539 257.354 314.87 242.9 313.529L226.91 312.037C217.109 311.129 214.318 305.679 213.863 299.386C213.452 296.229 213.755 292.963 214.036 290.044H214.015Z" fill="#E93E8F"/>
<path d="M272.219 179.385C270.856 166.15 271.505 160.917 290.265 159.468C310.582 157.911 315.364 165.848 316.381 177.028C317.982 193.356 317.831 243.224 319.021 249.712C319.627 253.129 321.704 253.151 328.087 252.653C331.873 252.372 333.799 254.816 334.427 258.579L335.638 265.412C336.569 270.711 335.076 273.782 330.251 276.398C324.776 279.426 314.066 282.302 304.762 283.016C281.848 284.767 278.105 272.073 276.871 253.648C276.374 244.846 273.561 192.426 272.219 179.364V179.385Z" fill="#E93E8F"/>
<path d="M377.225 144.135C410.179 145.822 426.169 168.075 424.394 195.972C422.469 223.523 405.159 244.262 372.551 242.597C339.771 240.932 324.495 218.376 325.901 190.609C327.308 162.841 344.791 142.47 377.225 144.135ZM383.348 193.55C383.76 185.613 382.894 178.65 375.819 178.304C368.051 177.915 366.666 184.748 366.255 192.685C365.844 200.795 366.861 208.104 373.936 208.472C381.704 208.861 382.937 201.66 383.348 193.572V193.55Z" fill="#E93E8F"/>
<path d="M433.482 217.014L429.155 215.803C425.498 214.787 423.745 212.667 424.892 209.229C426.623 204.341 427.402 197.746 428.938 193.507C429.804 191.063 431.037 189.247 437.074 188.792C450.597 187.927 453.302 182.759 455.596 179.104C458.041 175.493 460.442 174 464.921 175.255C472.083 177.266 489.133 178.455 485.65 188.965C484.59 192.08 483.356 197.118 482.621 199.778L493.439 202.806C498.762 204.298 499.541 206.655 498.697 209.661C497.529 213.813 495.214 221.426 493.245 228.389C492.271 231.871 490.843 233.104 487.186 232.065L474.701 228.562C470.763 241.97 466.025 256.265 465.592 259.725C464.943 263.315 466.328 264.764 468.773 265.629C470.395 266.256 472.754 266.753 475.329 267.834C477.557 268.829 480.111 271.878 479.267 275.576L477.428 284.032C476.519 287.903 474.507 290.563 471.174 291.601C464.056 293.915 450.468 291.169 442.483 288.941C421.365 283.016 418.747 268.656 422.599 253.064C424.589 245.365 431.318 225.189 433.439 217.014H433.482Z" fill="#E93E8F"/>
<path d="M251.577 151.748L256.662 174.217L273.063 190.371L250.582 195.453L234.397 211.845L229.312 189.376L212.933 173.2L235.392 168.14L251.577 151.748Z" fill="#F8AB00"/>
</svg>
